<mxfile host="app.diagrams.net" modified="2023-05-27T15:36:55.665Z" agent="Mozilla/5.0 (Windows NT 10.0; Win64; x64; rv:109.0) Gecko/20100101 Firefox/113.0" etag="xVNZG-mrDBHZ0lUthQg5" version="21.3.4" type="github">
  <diagram name="第 1 页" id="mwFwEamlkMF7T79r9eai">
    <mxGraphModel dx="2514" dy="2056" grid="1" gridSize="10" guides="1" tooltips="1" connect="1" arrows="1" fold="1" page="1" pageScale="1" pageWidth="827" pageHeight="1169" math="0" shadow="0">
      <root>
        <mxCell id="0" />
        <mxCell id="1" parent="0" />
        <UserObject label="" plantUmlData="{&#xa;  &quot;data&quot;: &quot;@startuml\nstart\n:初始化变量;\n:创建空字符串temNum;\n:创建空队列res;\n:创建空栈opera;\n:获取输入字符串input的长度n;\nwhile (循环条件 i &lt; n)\n:获取input[i]的值;\nif (input[i]是空格)\n:跳过该字符;\nelseif (input[i]是数字或小数点)\n:将input[i]添加到temNum;\nelseif (input[i]是运算符)\nif (temNum非空)\n:将temNum添加到res;\n:重置temNum为空字符串;\nendif\nif (opera为空栈)\n:将input[i]压入opera栈;\nelse\nwhile (opera非空栈)\nif (mOptPriority[opera栈顶元素] &gt;= mOptPriority[input[i]])\n:将opera栈顶元素出栈并添加到res;\nelse\n:跳出循环;\nendif\nendwhile\n:将input[i]压入opera栈;\nendif\nelseif (input[i]是左括号)\nif (temNum非空)\n:将temNum添加到res;\n:重置temNum为空字符串;\nendif\n:将左括号压入opera栈;\nelseif (input[i]是右括号)\nif (temNum非空)\n:将temNum添加到res;\n:重置temNum为空字符串;\nendif\n:弹出opera栈顶元素popedOpt;\nwhile (opera非空栈)\nif (popedOpt是左括号)\n:跳出循环;\nendif\n:将popedOpt添加到res;\n:弹出opera栈顶元素popedOpt;\nendwhile\nelse\n:返回res;\nendif\n:增加i的值;\nendwhile\nif (temNum非空)\n:将temNum添加到res;\n:重置temNum为空字符串;\nendif\nwhile (opera非空栈)\n:将opera栈顶元素出栈并添加到res;\nendwhile\n:return res;\nstop\n@enduml&quot;,&#xa;  &quot;format&quot;: &quot;svg&quot;&#xa;}" id="aveNBu3hDZHv3_lYqWIm-10">
          <mxCell style="shape=image;noLabel=1;verticalAlign=top;aspect=fixed;imageAspect=0;image=data:image/svg+xml,PD94bWwgdmVyc2lvbj0iMS4wIiBlbmNvZGluZz0idXMtYXNjaWkiIHN0YW5kYWxvbmU9Im5vIj8+PHN2ZyB4bWxucz0iaHR0cDovL3d3dy53My5vcmcvMjAwMC9zdmciIHhtbG5zOnhsaW5rPSJodHRwOi8vd3d3LnczLm9yZy8xOTk5L3hsaW5rIiBjb250ZW50U3R5bGVUeXBlPSJ0ZXh0L2NzcyIgaGVpZ2h0PSIxNTgzcHgiIHByZXNlcnZlQXNwZWN0UmF0aW89Im5vbmUiIHN0eWxlPSJ3aWR0aDoxNTI0cHg7aGVpZ2h0OjE1ODNweDtiYWNrZ3JvdW5kOiNGRkZGRkY7IiB2ZXJzaW9uPSIxLjEiIHZpZXdCb3g9IjAgMCAxNTI0IDE1ODMiIHdpZHRoPSIxNTI0cHgiIHpvb21BbmRQYW49Im1hZ25pZnkiPjxkZWZzLz48Zz48ZWxsaXBzZSBjeD0iNzY5IiBjeT0iMjAiIGZpbGw9IiMyMjIyMjIiIHJ4PSIxMCIgcnk9IjEwIiBzdHlsZT0ic3Ryb2tlOiMyMjIyMjI7c3Ryb2tlLXdpZHRoOjEuMDsiLz48cmVjdCBmaWxsPSIjRjFGMUYxIiBoZWlnaHQ9IjMyLjg0MzgiIHJ4PSIxMi41IiByeT0iMTIuNSIgc3R5bGU9InN0cm9rZTojMTgxODE4O3N0cm9rZS13aWR0aDowLjU7IiB3aWR0aD0iODAiIHg9IjcyOSIgeT0iNTAiLz48dGV4dCBmaWxsPSIjMDAwMDAwIiBmb250LWZhbWlseT0ic2Fucy1zZXJpZiIgZm9udC1zaXplPSIxMiIgbGVuZ3RoQWRqdXN0PSJzcGFjaW5nIiB0ZXh0TGVuZ3RoPSI2MCIgeD0iNzM5IiB5PSI3MS4zNDM4Ij4mIzIxMDIxOyYjMjI5ODc7JiMyMTI3MDsmIzIxNDY0OyYjMzczMjc7PC90ZXh0PjxyZWN0IGZpbGw9IiNGMUYxRjEiIGhlaWdodD0iMzIuODQzOCIgcng9IjEyLjUiIHJ5PSIxMi41IiBzdHlsZT0ic3Ryb2tlOiMxODE4MTg7c3Ryb2tlLXdpZHRoOjAuNTsiIHdpZHRoPSIxMzEiIHg9IjcwMy41IiB5PSIxMDIuODQzOCIvPjx0ZXh0IGZpbGw9IiMwMDAwMDAiIGZvbnQtZmFtaWx5PSJzYW5zLXNlcmlmIiBmb250LXNpemU9IjEyIiBsZW5ndGhBZGp1c3Q9InNwYWNpbmciIHRleHRMZW5ndGg9IjExMSIgeD0iNzEzLjUiIHk9IjEyNC4xODc1Ij4mIzIxMDE5OyYjMjQzMTQ7JiMzMTM1NDsmIzIzMzgzOyYjMzE1MjY7JiMyMDAxODt0ZW1OdW08L3RleHQ+PHJlY3QgZmlsbD0iI0YxRjFGMSIgaGVpZ2h0PSIzMi44NDM4IiByeD0iMTIuNSIgcnk9IjEyLjUiIHN0eWxlPSJzdHJva2U6IzE4MTgxODtzdHJva2Utd2lkdGg6MC41OyIgd2lkdGg9IjEwMSIgeD0iNzE4LjUiIHk9IjE1NS42ODc1Ii8+PHRleHQgZmlsbD0iIzAwMDAwMCIgZm9udC1mYW1pbHk9InNhbnMtc2VyaWYiIGZvbnQtc2l6ZT0iMTIiIGxlbmd0aEFkanVzdD0ic3BhY2luZyIgdGV4dExlbmd0aD0iODEiIHg9IjcyOC41IiB5PSIxNzcuMDMxMyI+JiMyMTAxOTsmIzI0MzE0OyYjMzEzNTQ7JiMzODQzMTsmIzIxMDE1O3JlczwvdGV4dD48cmVjdCBmaWxsPSIjRjFGMUYxIiBoZWlnaHQ9IjMyLjg0MzgiIHJ4PSIxMi41IiByeT0iMTIuNSIgc3R5bGU9InN0cm9rZTojMTgxODE4O3N0cm9rZS13aWR0aDowLjU7IiB3aWR0aD0iMTAzIiB4PSI3MTcuNSIgeT0iMjA4LjUzMTMiLz48dGV4dCBmaWxsPSIjMDAwMDAwIiBmb250LWZhbWlseT0ic2Fucy1zZXJpZiIgZm9udC1zaXplPSIxMiIgbGVuZ3RoQWRqdXN0PSJzcGFjaW5nIiB0ZXh0TGVuZ3RoPSI4MyIgeD0iNzI3LjUiIHk9IjIyOS44NzUiPiYjMjEwMTk7JiMyNDMxNDsmIzMxMzU0OyYjMjY2MzI7b3BlcmE8L3RleHQ+PHJlY3QgZmlsbD0iI0YxRjFGMSIgaGVpZ2h0PSIzMi44NDM4IiByeD0iMTIuNSIgcnk9IjEyLjUiIHN0eWxlPSJzdHJva2U6IzE4MTgxODtzdHJva2Utd2lkdGg6MC41OyIgd2lkdGg9IjE4MCIgeD0iNjc5IiB5PSIyNjEuMzc1Ii8+PHRleHQgZmlsbD0iIzAwMDAwMCIgZm9udC1mYW1pbHk9InNhbnMtc2VyaWYiIGZvbnQtc2l6ZT0iMTIiIGxlbmd0aEFkanVzdD0ic3BhY2luZyIgdGV4dExlbmd0aD0iMTYwIiB4PSI2ODkiIHk9IjI4Mi43MTg4Ij4mIzMzNzE5OyYjMjE0NjI7JiMzNjc1NTsmIzIwODM3OyYjMjMzODM7JiMzMTUyNjsmIzIwMDE4O2lucHV0JiMzMDM0MDsmIzM4MjcxOyYjMjQyMzA7bjwvdGV4dD48cmVjdCBmaWxsPSIjRjFGMUYxIiBoZWlnaHQ9IjMyLjg0MzgiIHJ4PSIxMi41IiByeT0iMTIuNSIgc3R5bGU9InN0cm9rZTojMTgxODE4O3N0cm9rZS13aWR0aDowLjU7IiB3aWR0aD0iMTE5IiB4PSI3MDkuNSIgeT0iMzU4LjIxODgiLz48dGV4dCBmaWxsPSIjMDAwMDAwIiBmb250LWZhbWlseT0ic2Fucy1zZXJpZiIgZm9udC1zaXplPSIxMiIgbGVuZ3RoQWRqdXN0PSJzcGFjaW5nIiB0ZXh0TGVuZ3RoPSI5OSIgeD0iNzE5LjUiIHk9IjM3OS41NjI1Ij4mIzMzNzE5OyYjMjE0NjI7aW5wdXRbaV0mIzMwMzQwOyYjMjA1NDA7PC90ZXh0Pjxwb2x5Z29uIGZpbGw9IiNGMUYxRjEiIHBvaW50cz0iNDgsNDExLjA2MjUsMTI5LDQxMS4wNjI1LDE0MSw0MjMuMDYyNSwxMjksNDM1LjA2MjUsNDgsNDM1LjA2MjUsMzYsNDIzLjA2MjUsNDgsNDExLjA2MjUiIHN0eWxlPSJzdHJva2U6IzE4MTgxODtzdHJva2Utd2lkdGg6MC41OyIvPjx0ZXh0IGZpbGw9IiMwMDAwMDAiIGZvbnQtZmFtaWx5PSJzYW5zLXNlcmlmIiBmb250LXNpemU9IjExIiBsZW5ndGhBZGp1c3Q9InNwYWNpbmciIHRleHRMZW5ndGg9IjgxIiB4PSI0OCIgeT0iNDI3LjU3NDIiPmlucHV0W2ldJiMyNjE1OTsmIzMxMzU0OyYjMjY2ODQ7PC90ZXh0PjxyZWN0IGZpbGw9IiNGMUYxRjEiIGhlaWdodD0iMzIuODQzOCIgcng9IjEyLjUiIHJ5PSIxMi41IiBzdHlsZT0ic3Ryb2tlOiMxODE4MTg7c3Ryb2tlLXdpZHRoOjAuNTsiIHdpZHRoPSI4MCIgeD0iNDguNSIgeT0iNDU1LjA2MjUiLz48dGV4dCBmaWxsPSIjMDAwMDAwIiBmb250LWZhbWlseT0ic2Fucy1zZXJpZiIgZm9udC1zaXplPSIxMiIgbGVuZ3RoQWRqdXN0PSJzcGFjaW5nIiB0ZXh0TGVuZ3RoPSI2MCIgeD0iNTguNSIgeT0iNDc2LjQwNjMiPiYjMzYzMzk7JiMzNjgwNzsmIzM1ODEzOyYjMjMzODM7JiMzMTUyNjs8L3RleHQ+PHBvbHlnb24gZmlsbD0iI0YxRjFGMSIgcG9pbnRzPSIxNzMsNDExLjA2MjUsMjk4LDQxMS4wNjI1LDMxMCw0MjMuMDYyNSwyOTgsNDM1LjA2MjUsMTczLDQzNS4wNjI1LDE2MSw0MjMuMDYyNSwxNzMsNDExLjA2MjUiIHN0eWxlPSJzdHJva2U6IzE4MTgxODtzdHJva2Utd2lkdGg6MC41OyIvPjx0ZXh0IGZpbGw9IiMwMDAwMDAiIGZvbnQtZmFtaWx5PSJzYW5zLXNlcmlmIiBmb250LXNpemU9IjExIiBsZW5ndGhBZGp1c3Q9InNwYWNpbmciIHRleHRMZW5ndGg9IjEyNSIgeD0iMTczIiB5PSI0MjcuNTc0MiI+aW5wdXRbaV0mIzI2MTU5OyYjMjU5Njg7JiMyMzM4MzsmIzI1MTEwOyYjMjM1Njc7JiMyNTk2ODsmIzI4ODU3OzwvdGV4dD48cmVjdCBmaWxsPSIjRjFGMUYxIiBoZWlnaHQ9IjMyLjg0MzgiIHJ4PSIxMi41IiByeT0iMTIuNSIgc3R5bGU9InN0cm9rZTojMTgxODE4O3N0cm9rZS13aWR0aDowLjU7IiB3aWR0aD0iMTU4IiB4PSIxNTYuNSIgeT0iNDU1LjA2MjUiLz48dGV4dCBmaWxsPSIjMDAwMDAwIiBmb250LWZhbWlseT0ic2Fucy1zZXJpZiIgZm9udC1zaXplPSIxMiIgbGVuZ3RoQWRqdXN0PSJzcGFjaW5nIiB0ZXh0TGVuZ3RoPSIxMzgiIHg9IjE2Ni41IiB5PSI0NzYuNDA2MyI+JiMyMzU1ODtpbnB1dFtpXSYjMjgxNTU7JiMyMTE1MjsmIzIxMDQwO3RlbU51bTwvdGV4dD48cG9seWdvbiBmaWxsPSIjRjFGMUYxIiBwb2ludHM9IjUzNi41LDQxMS4wNjI1LDYyOC41LDQxMS4wNjI1LDY0MC41LDQyMy4wNjI1LDYyOC41LDQzNS4wNjI1LDUzNi41LDQzNS4wNjI1LDUyNC41LDQyMy4wNjI1LDUzNi41LDQxMS4wNjI1IiBzdHlsZT0ic3Ryb2tlOiMxODE4MTg7c3Ryb2tlLXdpZHRoOjAuNTsiLz48dGV4dCBmaWxsPSIjMDAwMDAwIiBmb250LWZhbWlseT0ic2Fucy1zZXJpZiIgZm9udC1zaXplPSIxMSIgbGVuZ3RoQWRqdXN0PSJzcGFjaW5nIiB0ZXh0TGVuZ3RoPSI5MiIgeD0iNTM2LjUiIHk9IjQyNy41NzQyIj5pbnB1dFtpXSYjMjYxNTk7JiMzNjgxNjsmIzMxNjM5OyYjMzE1MjY7PC90ZXh0PjxyZWN0IGZpbGw9IiNGMUYxRjEiIGhlaWdodD0iMzIuODQzOCIgcng9IjEyLjUiIHJ5PSIxMi41IiBzdHlsZT0ic3Ryb2tlOiMxODE4MTg7c3Ryb2tlLXdpZHRoOjAuNTsiIHdpZHRoPSIxMjgiIHg9IjUxOC41IiB5PSI1MDMuMDYyNSIvPjx0ZXh0IGZpbGw9IiMwMDAwMDAiIGZvbnQtZmFtaWx5PSJzYW5zLXNlcmlmIiBmb250LXNpemU9IjEyIiBsZW5ndGhBZGp1c3Q9InNwYWNpbmciIHRleHRMZW5ndGg9IjEwOCIgeD0iNTI4LjUiIHk9IjUyNC40MDYzIj4mIzIzNTU4O3RlbU51bSYjMjgxNTU7JiMyMTE1MjsmIzIxMDQwO3JlczwvdGV4dD48cmVjdCBmaWxsPSIjRjFGMUYxIiBoZWlnaHQ9IjMyLjg0MzgiIHJ4PSIxMi41IiByeT0iMTIuNSIgc3R5bGU9InN0cm9rZTojMTgxODE4O3N0cm9rZS13aWR0aDowLjU7IiB3aWR0aD0iMTQzIiB4PSI1MTEiIHk9IjU3MC45MDYzIi8+PHRleHQgZmlsbD0iIzAwMDAwMCIgZm9udC1mYW1pbHk9InNhbnMtc2VyaWYiIGZvbnQtc2l6ZT0iMTIiIGxlbmd0aEFkanVzdD0ic3BhY2luZyIgdGV4dExlbmd0aD0iMTIzIiB4PSI1MjEiIHk9IjU5Mi4yNSI+JiMzNzMyNTsmIzMyNjIyO3RlbU51bSYjMjAwMjY7JiMzMTM1NDsmIzIzMzgzOyYjMzE1MjY7JiMyMDAxODs8L3RleHQ+PHBvbHlnb24gZmlsbD0iI0YxRjFGMSIgcG9pbnRzPSI1NTMuNSw0NTUuMDYyNSw2MTEuNSw0NTUuMDYyNSw2MjMuNSw0NjcuMDYyNSw2MTEuNSw0NzkuMDYyNSw1NTMuNSw0NzkuMDYyNSw1NDEuNSw0NjcuMDYyNSw1NTMuNSw0NTUuMDYyNSIgc3R5bGU9InN0cm9rZTojMTgxODE4O3N0cm9rZS13aWR0aDowLjU7Ii8+PHRleHQgZmlsbD0iIzAwMDAwMCIgZm9udC1mYW1pbHk9InNhbnMtc2VyaWYiIGZvbnQtc2l6ZT0iMTEiIGxlbmd0aEFkanVzdD0ic3BhY2luZyIgdGV4dExlbmd0aD0iNTgiIHg9IjU1My41IiB5PSI0NzEuNTc0MiI+dGVtTnVtJiMzODc1MDsmIzMxMzU0OzwvdGV4dD48cG9seWdvbiBmaWxsPSIjRjFGMUYxIiBwb2ludHM9IjU4Mi41LDYyMy43NSw1OTQuNSw2MzUuNzUsNTgyLjUsNjQ3Ljc1LDU3MC41LDYzNS43NSw1ODIuNSw2MjMuNzUiIHN0eWxlPSJzdHJva2U6IzE4MTgxODtzdHJva2Utd2lkdGg6MC41OyIvPjxwb2x5Z29uIGZpbGw9IiNGMUYxRjEiIHBvaW50cz0iNTUxLDY2Ny43NSw2MTQsNjY3Ljc1LDYyNiw2NzkuNzUsNjE0LDY5MS43NSw1NTEsNjkxLjc1LDUzOSw2NzkuNzUsNTUxLDY2Ny43NSIgc3R5bGU9InN0cm9rZTojMTgxODE4O3N0cm9rZS13aWR0aDowLjU7Ii8+PHRleHQgZmlsbD0iIzAwMDAwMCIgZm9udC1mYW1pbHk9InNhbnMtc2VyaWYiIGZvbnQtc2l6ZT0iMTEiIGxlbmd0aEFkanVzdD0ic3BhY2luZyIgdGV4dExlbmd0aD0iNjMiIHg9IjU1MSIgeT0iNjg0LjI2MTciPm9wZXJhJiMyMDAyNjsmIzMxMzU0OyYjMjY2MzI7PC90ZXh0PjxyZWN0IGZpbGw9IiNGMUYxRjEiIGhlaWdodD0iMzIuODQzOCIgcng9IjEyLjUiIHJ5PSIxMi41IiBzdHlsZT0ic3Ryb2tlOiMxODE4MTg7c3Ryb2tlLXdpZHRoOjAuNTsiIHdpZHRoPSIxNTQiIHg9IjMyNC41IiB5PSI3MDEuNzUiLz48dGV4dCBmaWxsPSIjMDAwMDAwIiBmb250LWZhbWlseT0ic2Fucy1zZXJpZiIgZm9udC1zaXplPSIxMiIgbGVuZ3RoQWRqdXN0PSJzcGFjaW5nIiB0ZXh0TGVuZ3RoPSIxMzQiIHg9IjMzNC41IiB5PSI3MjMuMDkzOCI+JiMyMzU1ODtpbnB1dFtpXSYjMjEzODc7JiMyMDgzNztvcGVyYSYjMjY2MzI7PC90ZXh0Pjxwb2x5Z29uIGZpbGw9IiNGMUYxRjEiIHBvaW50cz0iNjMyLjUsNzQ5Ljc1LDk0Ni41LDc0OS43NSw5NTguNSw3NjEuNzUsOTQ2LjUsNzczLjc1LDYzMi41LDc3My43NSw2MjAuNSw3NjEuNzUsNjMyLjUsNzQ5Ljc1IiBzdHlsZT0ic3Ryb2tlOiMxODE4MTg7c3Ryb2tlLXdpZHRoOjAuNTsiLz48dGV4dCBmaWxsPSIjMDAwMDAwIiBmb250LWZhbWlseT0ic2Fucy1zZXJpZiIgZm9udC1zaXplPSIxMSIgbGVuZ3RoQWRqdXN0PSJzcGFjaW5nIiB0ZXh0TGVuZ3RoPSIzMTQiIHg9IjYzMi41IiB5PSI3NjYuMjYxNyI+bU9wdFByaW9yaXR5W29wZXJhJiMyNjYzMjsmIzM5MDMwOyYjMjA4MDM7JiMzMjAzMjtdICZndDs9IG1PcHRQcmlvcml0eVtpbnB1dFtpXV08L3RleHQ+PHJlY3QgZmlsbD0iI0YxRjFGMSIgaGVpZ2h0PSIzMi44NDM4IiByeD0iMTIuNSIgcnk9IjEyLjUiIHN0eWxlPSJzdHJva2U6IzE4MTgxODtzdHJva2Utd2lkdGg6MC41OyIgd2lkdGg9IjIwOCIgeD0iNTA2LjUiIHk9Ijc4My43NSIvPjx0ZXh0IGZpbGw9IiMwMDAwMDAiIGZvbnQtZmFtaWx5PSJzYW5zLXNlcmlmIiBmb250LXNpemU9IjEyIiBsZW5ndGhBZGp1c3Q9InNwYWNpbmciIHRleHRMZW5ndGg9IjE4OCIgeD0iNTE2LjUiIHk9IjgwNS4wOTM4Ij4mIzIzNTU4O29wZXJhJiMyNjYzMjsmIzM5MDMwOyYjMjA4MDM7JiMzMjAzMjsmIzIwOTg2OyYjMjY2MzI7JiMyNDE4MjsmIzI4MTU1OyYjMjExNTI7JiMyMTA0MDtyZXM8L3RleHQ+PHJlY3QgZmlsbD0iI0YxRjFGMSIgaGVpZ2h0PSIzMi44NDM4IiByeD0iMTIuNSIgcnk9IjEyLjUiIHN0eWxlPSJzdHJva2U6IzE4MTgxODtzdHJva2Utd2lkdGg6MC41OyIgd2lkdGg9IjY4IiB4PSI5MzQuNSIgeT0iNzgzLjc1Ii8+PHRleHQgZmlsbD0iIzAwMDAwMCIgZm9udC1mYW1pbHk9InNhbnMtc2VyaWYiIGZvbnQtc2l6ZT0iMTIiIGxlbmd0aEFkanVzdD0ic3BhY2luZyIgdGV4dExlbmd0aD0iNDgiIHg9Ijk0NC41IiB5PSI4MDUuMDkzOCI+JiMzNjMzOTsmIzIwOTg2OyYjMjQ0OTA7JiMyOTYxNTs8L3RleHQ+PHBvbHlnb24gZmlsbD0iI0YxRjFGMSIgcG9pbnRzPSI3ODkuNSw4MjIuNTkzOCw4MDEuNSw4MzQuNTkzOCw3ODkuNSw4NDYuNTkzOCw3NzcuNSw4MzQuNTkzOCw3ODkuNSw4MjIuNTkzOCIgc3R5bGU9InN0cm9rZTojMTgxODE4O3N0cm9rZS13aWR0aDowLjU7Ii8+PHBvbHlnb24gZmlsbD0iI0YxRjFGMSIgcG9pbnRzPSI3NTgsNzAxLjc1LDgyMSw3MDEuNzUsODMzLDcxMy43NSw4MjEsNzI1Ljc1LDc1OCw3MjUuNzUsNzQ2LDcxMy43NSw3NTgsNzAxLjc1IiBzdHlsZT0ic3Ryb2tlOiMxODE4MTg7c3Ryb2tlLXdpZHRoOjAuNTsiLz48dGV4dCBmaWxsPSIjMDAwMDAwIiBmb250LWZhbWlseT0ic2Fucy1zZXJpZiIgZm9udC1zaXplPSIxMSIgbGVuZ3RoQWRqdXN0PSJzcGFjaW5nIiB0ZXh0TGVuZ3RoPSI2MyIgeD0iNzU4IiB5PSI3MTguMjYxNyI+b3BlcmEmIzM4NzUwOyYjMzEzNTQ7JiMyNjYzMjs8L3RleHQ+PHJlY3QgZmlsbD0iI0YxRjFGMSIgaGVpZ2h0PSIzMi44NDM4IiByeD0iMTIuNSIgcnk9IjEyLjUiIHN0eWxlPSJzdHJva2U6IzE4MTgxODtzdHJva2Utd2lkdGg6MC41OyIgd2lkdGg9IjE1NCIgeD0iNzEyLjUiIHk9IjkwNS41OTM4Ii8+PHRleHQgZmlsbD0iIzAwMDAwMCIgZm9udC1mYW1pbHk9InNhbnMtc2VyaWYiIGZvbnQtc2l6ZT0iMTIiIGxlbmd0aEFkanVzdD0ic3BhY2luZyIgdGV4dExlbmd0aD0iMTM0IiB4PSI3MjIuNSIgeT0iOTI2LjkzNzUiPiYjMjM1NTg7aW5wdXRbaV0mIzIxMzg3OyYjMjA4Mzc7b3BlcmEmIzI2NjMyOzwvdGV4dD48cG9seWdvbiBmaWxsPSIjRjFGMUYxIiBwb2ludHM9IjU4Mi41LDk0NC40Mzc1LDU5NC41LDk1Ni40Mzc1LDU4Mi41LDk2OC40Mzc1LDU3MC41LDk1Ni40Mzc1LDU4Mi41LDk0NC40Mzc1IiBzdHlsZT0ic3Ryb2tlOiMxODE4MTg7c3Ryb2tlLXdpZHRoOjAuNTsiLz48cG9seWdvbiBmaWxsPSIjRjFGMUYxIiBwb2ludHM9IjEwNTYsNDExLjA2MjUsMTE0OCw0MTEuMDYyNSwxMTYwLDQyMy4wNjI1LDExNDgsNDM1LjA2MjUsMTA1Niw0MzUuMDYyNSwxMDQ0LDQyMy4wNjI1LDEwNTYsNDExLjA2MjUiIHN0eWxlPSJzdHJva2U6IzE4MTgxODtzdHJva2Utd2lkdGg6MC41OyIvPjx0ZXh0IGZpbGw9IiMwMDAwMDAiIGZvbnQtZmFtaWx5PSJzYW5zLXNlcmlmIiBmb250LXNpemU9IjExIiBsZW5ndGhBZGp1c3Q9InNwYWNpbmciIHRleHRMZW5ndGg9IjkyIiB4PSIxMDU2IiB5PSI0MjcuNTc0MiI+aW5wdXRbaV0mIzI2MTU5OyYjMjQwMzg7JiMyNTMyNDsmIzIxNDk1OzwvdGV4dD48cmVjdCBmaWxsPSIjRjFGMUYxIiBoZWlnaHQ9IjMyLjg0MzgiIHJ4PSIxMi41IiByeT0iMTIuNSIgc3R5bGU9InN0cm9rZTojMTgxODE4O3N0cm9rZS13aWR0aDowLjU7IiB3aWR0aD0iMTI4IiB4PSIxMDM4IiB5PSI1MDMuMDYyNSIvPjx0ZXh0IGZpbGw9IiMwMDAwMDAiIGZvbnQtZmFtaWx5PSJzYW5zLXNlcmlmIiBmb250LXNpemU9IjEyIiBsZW5ndGhBZGp1c3Q9InNwYWNpbmciIHRleHRMZW5ndGg9IjEwOCIgeD0iMTA0OCIgeT0iNTI0LjQwNjMiPiYjMjM1NTg7dGVtTnVtJiMyODE1NTsmIzIxMTUyOyYjMjEwNDA7cmVzPC90ZXh0PjxyZWN0IGZpbGw9IiNGMUYxRjEiIGhlaWdodD0iMzIuODQzOCIgcng9IjEyLjUiIHJ5PSIxMi41IiBzdHlsZT0ic3Ryb2tlOiMxODE4MTg7c3Ryb2tlLXdpZHRoOjAuNTsiIHdpZHRoPSIxNDMiIHg9IjEwMzAuNSIgeT0iNTcwLjkwNjMiLz48dGV4dCBmaWxsPSIjMDAwMDAwIiBmb250LWZhbWlseT0ic2Fucy1zZXJpZiIgZm9udC1zaXplPSIxMiIgbGVuZ3RoQWRqdXN0PSJzcGFjaW5nIiB0ZXh0TGVuZ3RoPSIxMjMiIHg9IjEwNDAuNSIgeT0iNTkyLjI1Ij4mIzM3MzI1OyYjMzI2MjI7dGVtTnVtJiMyMDAyNjsmIzMxMzU0OyYjMjMzODM7JiMzMTUyNjsmIzIwMDE4OzwvdGV4dD48cG9seWdvbiBmaWxsPSIjRjFGMUYxIiBwb2ludHM9IjEwNzMsNDU1LjA2MjUsMTEzMSw0NTUuMDYyNSwxMTQzLDQ2Ny4wNjI1LDExMzEsNDc5LjA2MjUsMTA3Myw0NzkuMDYyNSwxMDYxLDQ2Ny4wNjI1LDEwNzMsNDU1LjA2MjUiIHN0eWxlPSJzdHJva2U6IzE4MTgxODtzdHJva2Utd2lkdGg6MC41OyIvPjx0ZXh0IGZpbGw9IiMwMDAwMDAiIGZvbnQtZmFtaWx5PSJzYW5zLXNlcmlmIiBmb250LXNpemU9IjExIiBsZW5ndGhBZGp1c3Q9InNwYWNpbmciIHRleHRMZW5ndGg9IjU4IiB4PSIxMDczIiB5PSI0NzEuNTc0MiI+dGVtTnVtJiMzODc1MDsmIzMxMzU0OzwvdGV4dD48cG9seWdvbiBmaWxsPSIjRjFGMUYxIiBwb2ludHM9IjExMDIsNjIzLjc1LDExMTQsNjM1Ljc1LDExMDIsNjQ3Ljc1LDEwOTAsNjM1Ljc1LDExMDIsNjIzLjc1IiBzdHlsZT0ic3Ryb2tlOiMxODE4MTg7c3Ryb2tlLXdpZHRoOjAuNTsiLz48cmVjdCBmaWxsPSIjRjFGMUYxIiBoZWlnaHQ9IjMyLjg0MzgiIHJ4PSIxMi41IiByeT0iMTIuNSIgc3R5bGU9InN0cm9rZTojMTgxODE4O3N0cm9rZS13aWR0aDowLjU7IiB3aWR0aD0iMTM5IiB4PSIxMDMyLjUiIHk9IjY2Ny43NSIvPjx0ZXh0IGZpbGw9IiMwMDAwMDAiIGZvbnQtZmFtaWx5PSJzYW5zLXNlcmlmIiBmb250LXNpemU9IjEyIiBsZW5ndGhBZGp1c3Q9InNwYWNpbmciIHRleHRMZW5ndGg9IjExOSIgeD0iMTA0Mi41IiB5PSI2ODkuMDkzOCI+JiMyMzU1ODsmIzI0MDM4OyYjMjUzMjQ7JiMyMTQ5NTsmIzIxMzg3OyYjMjA4Mzc7b3BlcmEmIzI2NjMyOzwvdGV4dD48cG9seWdvbiBmaWxsPSIjRjFGMUYxIiBwb2ludHM9IjEyNTguNSw0MTEuMDYyNSwxMzUwLjUsNDExLjA2MjUsMTM2Mi41LDQyMy4wNjI1LDEzNTAuNSw0MzUuMDYyNSwxMjU4LjUsNDM1LjA2MjUsMTI0Ni41LDQyMy4wNjI1LDEyNTguNSw0MTEuMDYyNSIgc3R5bGU9InN0cm9rZTojMTgxODE4O3N0cm9rZS13aWR0aDowLjU7Ii8+PHRleHQgZmlsbD0iIzAwMDAwMCIgZm9udC1mYW1pbHk9InNhbnMtc2VyaWYiIGZvbnQtc2l6ZT0iMTEiIGxlbmd0aEFkanVzdD0ic3BhY2luZyIgdGV4dExlbmd0aD0iOTIiIHg9IjEyNTguNSIgeT0iNDI3LjU3NDIiPmlucHV0W2ldJiMyNjE1OTsmIzIxNDkxOyYjMjUzMjQ7JiMyMTQ5NTs8L3RleHQ+PHJlY3QgZmlsbD0iI0YxRjFGMSIgaGVpZ2h0PSIzMi44NDM4IiByeD0iMTIuNSIgcnk9IjEyLjUiIHN0eWxlPSJzdHJva2U6IzE4MTgxODtzdHJva2Utd2lkdGg6MC41OyIgd2lkdGg9IjEyOCIgeD0iMTI0MC41IiB5PSI1MDMuMDYyNSIvPjx0ZXh0IGZpbGw9IiMwMDAwMDAiIGZvbnQtZmFtaWx5PSJzYW5zLXNlcmlmIiBmb250LXNpemU9IjEyIiBsZW5ndGhBZGp1c3Q9InNwYWNpbmciIHRleHRMZW5ndGg9IjEwOCIgeD0iMTI1MC41IiB5PSI1MjQuNDA2MyI+JiMyMzU1ODt0ZW1OdW0mIzI4MTU1OyYjMjExNTI7JiMyMTA0MDtyZXM8L3RleHQ+PHJlY3QgZmlsbD0iI0YxRjFGMSIgaGVpZ2h0PSIzMi44NDM4IiByeD0iMTIuNSIgcnk9IjEyLjUiIHN0eWxlPSJzdHJva2U6IzE4MTgxODtzdHJva2Utd2lkdGg6MC41OyIgd2lkdGg9IjE0MyIgeD0iMTIzMyIgeT0iNTcwLjkwNjMiLz48dGV4dCBmaWxsPSIjMDAwMDAwIiBmb250LWZhbWlseT0ic2Fucy1zZXJpZiIgZm9udC1zaXplPSIxMiIgbGVuZ3RoQWRqdXN0PSJzcGFjaW5nIiB0ZXh0TGVuZ3RoPSIxMjMiIHg9IjEyNDMiIHk9IjU5Mi4yNSI+JiMzNzMyNTsmIzMyNjIyO3RlbU51bSYjMjAwMjY7JiMzMTM1NDsmIzIzMzgzOyYjMzE1MjY7JiMyMDAxODs8L3RleHQ+PHBvbHlnb24gZmlsbD0iI0YxRjFGMSIgcG9pbnRzPSIxMjc1LjUsNDU1LjA2MjUsMTMzMy41LDQ1NS4wNjI1LDEzNDUuNSw0NjcuMDYyNSwxMzMzLjUsNDc5LjA2MjUsMTI3NS41LDQ3OS4wNjI1LDEyNjMuNSw0NjcuMDYyNSwxMjc1LjUsNDU1LjA2MjUiIHN0eWxlPSJzdHJva2U6IzE4MTgxODtzdHJva2Utd2lkdGg6MC41OyIvPjx0ZXh0IGZpbGw9IiMwMDAwMDAiIGZvbnQtZmFtaWx5PSJzYW5zLXNlcmlmIiBmb250LXNpemU9IjExIiBsZW5ndGhBZGp1c3Q9InNwYWNpbmciIHRleHRMZW5ndGg9IjU4IiB4PSIxMjc1LjUiIHk9IjQ3MS41NzQyIj50ZW1OdW0mIzM4NzUwOyYjMzEzNTQ7PC90ZXh0Pjxwb2x5Z29uIGZpbGw9IiNGMUYxRjEiIHBvaW50cz0iMTMwNC41LDYyMy43NSwxMzE2LjUsNjM1Ljc1LDEzMDQuNSw2NDcuNzUsMTI5Mi41LDYzNS43NSwxMzA0LjUsNjIzLjc1IiBzdHlsZT0ic3Ryb2tlOiMxODE4MTg7c3Ryb2tlLXdpZHRoOjAuNTsiLz48cmVjdCBmaWxsPSIjRjFGMUYxIiBoZWlnaHQ9IjMyLjg0MzgiIHJ4PSIxMi41IiByeT0iMTIuNSIgc3R5bGU9InN0cm9rZTojMTgxODE4O3N0cm9rZS13aWR0aDowLjU7IiB3aWR0aD0iMTgyIiB4PSIxMjEzLjUiIHk9IjY2Ny43NSIvPjx0ZXh0IGZpbGw9IiMwMDAwMDAiIGZvbnQtZmFtaWx5PSJzYW5zLXNlcmlmIiBmb250LXNpemU9IjEyIiBsZW5ndGhBZGp1c3Q9InNwYWNpbmciIHRleHRMZW5ndGg9IjE2MiIgeD0iMTIyMy41IiB5PSI2ODkuMDkzOCI+JiMyNDM3NzsmIzIwOTg2O29wZXJhJiMyNjYzMjsmIzM5MDMwOyYjMjA4MDM7JiMzMjAzMjtwb3BlZE9wdDwvdGV4dD48cmVjdCBmaWxsPSIjRjFGMUYxIiBoZWlnaHQ9IjMyLjg0MzgiIHJ4PSIxMi41IiByeT0iMTIuNSIgc3R5bGU9InN0cm9rZTojMTgxODE4O3N0cm9rZS13aWR0aDowLjU7IiB3aWR0aD0iNjgiIHg9IjEyNzAuNSIgeT0iODMxLjU5MzgiLz48dGV4dCBmaWxsPSIjMDAwMDAwIiBmb250LWZhbWlseT0ic2Fucy1zZXJpZiIgZm9udC1zaXplPSIxMiIgbGVuZ3RoQWRqdXN0PSJzcGFjaW5nIiB0ZXh0TGVuZ3RoPSI0OCIgeD0iMTI4MC41IiB5PSI4NTIuOTM3NSI+JiMzNjMzOTsmIzIwOTg2OyYjMjQ0OTA7JiMyOTYxNTs8L3RleHQ+PHBvbHlnb24gZmlsbD0iI0YxRjFGMSIgcG9pbnRzPSIxMjU4LjUsNzgzLjU5MzgsMTM1MC41LDc4My41OTM4LDEzNjIuNSw3OTUuNTkzOCwxMzUwLjUsODA3LjU5MzgsMTI1OC41LDgwNy41OTM4LDEyNDYuNSw3OTUuNTkzOCwxMjU4LjUsNzgzLjU5MzgiIHN0eWxlPSJzdHJva2U6IzE4MTgxODtzdHJva2Utd2lkdGg6MC41OyIvPjx0ZXh0IGZpbGw9IiMwMDAwMDAiIGZvbnQtZmFtaWx5PSJzYW5zLXNlcmlmIiBmb250LXNpemU9IjExIiBsZW5ndGhBZGp1c3Q9InNwYWNpbmciIHRleHRMZW5ndGg9IjkyIiB4PSIxMjU4LjUiIHk9IjgwMC4xMDU1Ij5wb3BlZE9wdCYjMjYxNTk7JiMyNDAzODsmIzI1MzI0OyYjMjE0OTU7PC90ZXh0Pjxwb2x5Z29uIGZpbGw9IiNGMUYxRjEiIHBvaW50cz0iMTMwNC41LDg4OC40Mzc1LDEzMTYuNSw5MDAuNDM3NSwxMzA0LjUsOTEyLjQzNzUsMTI5Mi41LDkwMC40Mzc1LDEzMDQuNSw4ODguNDM3NSIgc3R5bGU9InN0cm9rZTojMTgxODE4O3N0cm9rZS13aWR0aDowLjU7Ii8+PHJlY3QgZmlsbD0iI0YxRjFGMSIgaGVpZ2h0PSIzMi44NDM4IiByeD0iMTIuNSIgcnk9IjEyLjUiIHN0eWxlPSJzdHJva2U6IzE4MTgxODtzdHJva2Utd2lkdGg6MC41OyIgd2lkdGg9IjE0NCIgeD0iMTIzMi41IiB5PSI5NDcuNDM3NSIvPjx0ZXh0IGZpbGw9IiMwMDAwMDAiIGZvbnQtZmFtaWx5PSJzYW5zLXNlcmlmIiBmb250LXNpemU9IjEyIiBsZW5ndGhBZGp1c3Q9InNwYWNpbmciIHRleHRMZW5ndGg9IjEyNCIgeD0iMTI0Mi41IiB5PSI5NjguNzgxMyI+JiMyMzU1ODtwb3BlZE9wdCYjMjgxNTU7JiMyMTE1MjsmIzIxMDQwO3JlczwvdGV4dD48cmVjdCBmaWxsPSIjRjFGMUYxIiBoZWlnaHQ9IjMyLjg0MzgiIHJ4PSIxMi41IiByeT0iMTIuNSIgc3R5bGU9InN0cm9rZTojMTgxODE4O3N0cm9rZS13aWR0aDowLjU7IiB3aWR0aD0iMTgyIiB4PSIxMjEzLjUiIHk9IjEwMDAuMjgxMyIvPjx0ZXh0IGZpbGw9IiMwMDAwMDAiIGZvbnQtZmFtaWx5PSJzYW5zLXNlcmlmIiBmb250LXNpemU9IjEyIiBsZW5ndGhBZGp1c3Q9InNwYWNpbmciIHRleHRMZW5ndGg9IjE2MiIgeD0iMTIyMy41IiB5PSIxMDIxLjYyNSI+JiMyNDM3NzsmIzIwOTg2O29wZXJhJiMyNjYzMjsmIzM5MDMwOyYjMjA4MDM7JiMzMjAzMjtwb3BlZE9wdDwvdGV4dD48cG9seWdvbiBmaWxsPSIjRjFGMUYxIiBwb2ludHM9IjEyNzMsNzM1LjU5MzgsMTMzNiw3MzUuNTkzOCwxMzQ4LDc0Ny41OTM4LDEzMzYsNzU5LjU5MzgsMTI3Myw3NTkuNTkzOCwxMjYxLDc0Ny41OTM4LDEyNzMsNzM1LjU5MzgiIHN0eWxlPSJzdHJva2U6IzE4MTgxODtzdHJva2Utd2lkdGg6MC41OyIvPjx0ZXh0IGZpbGw9IiMwMDAwMDAiIGZvbnQtZmFtaWx5PSJzYW5zLXNlcmlmIiBmb250LXNpemU9IjExIiBsZW5ndGhBZGp1c3Q9InNwYWNpbmciIHRleHRMZW5ndGg9IjYzIiB4PSIxMjczIiB5PSI3NTIuMTA1NSI+b3BlcmEmIzM4NzUwOyYjMzEzNTQ7JiMyNjYzMjs8L3RleHQ+PHJlY3QgZmlsbD0iI0YxRjFGMSIgaGVpZ2h0PSIzMi44NDM4IiByeD0iMTIuNSIgcnk9IjEyLjUiIHN0eWxlPSJzdHJva2U6IzE4MTgxODtzdHJva2Utd2lkdGg6MC41OyIgd2lkdGg9IjY1IiB4PSIxNDIxLjUiIHk9Ijc0MC42NzE5Ii8+PHRleHQgZmlsbD0iIzAwMDAwMCIgZm9udC1mYW1pbHk9InNhbnMtc2VyaWYiIGZvbnQtc2l6ZT0iMTIiIGxlbmd0aEFkanVzdD0ic3BhY2luZyIgdGV4dExlbmd0aD0iNDUiIHg9IjE0MzEuNSIgeT0iNzYyLjAxNTYiPiYjMzY4MjA7JiMyMjIzODtyZXM8L3RleHQ+PHJlY3QgZmlsbD0iI0YxRjFGMSIgaGVpZ2h0PSIzMi44NDM4IiByeD0iMTIuNSIgcnk9IjEyLjUiIHN0eWxlPSJzdHJva2U6IzE4MTgxODtzdHJva2Utd2lkdGg6MC41OyIgd2lkdGg9Ijc0IiB4PSI3MzIiIHk9IjEwOTUuMTI1Ii8+PHRleHQgZmlsbD0iIzAwMDAwMCIgZm9udC1mYW1pbHk9InNhbnMtc2VyaWYiIGZvbnQtc2l6ZT0iMTIiIGxlbmd0aEFkanVzdD0ic3BhY2luZyIgdGV4dExlbmd0aD0iNTQiIHg9Ijc0MiIgeT0iMTExNi40Njg4Ij4mIzIyNjg2OyYjMjExNTI7aSYjMzAzNDA7JiMyMDU0MDs8L3RleHQ+PHBvbHlnb24gZmlsbD0iI0YxRjFGMSIgcG9pbnRzPSI3MjksMzE0LjIxODgsODA5LDMxNC4yMTg4LDgyMSwzMjYuMjE4OCw4MDksMzM4LjIxODgsNzI5LDMzOC4yMTg4LDcxNywzMjYuMjE4OCw3MjksMzE0LjIxODgiIHN0eWxlPSJzdHJva2U6IzE4MTgxODtzdHJva2Utd2lkdGg6MC41OyIvPjx0ZXh0IGZpbGw9IiMwMDAwMDAiIGZvbnQtZmFtaWx5PSJzYW5zLXNlcmlmIiBmb250LXNpemU9IjExIiBsZW5ndGhBZGp1c3Q9InNwYWNpbmciIHRleHRMZW5ndGg9IjgwIiB4PSI3MjkiIHk9IjMzMC43MzA1Ij4mIzI0NDkwOyYjMjk2MTU7JiMyNjQ2NTsmIzIwMjE0OyBpICZsdDsgbjwvdGV4dD48cmVjdCBmaWxsPSIjRjFGMUYxIiBoZWlnaHQ9IjMyLjg0MzgiIHJ4PSIxMi41IiByeT0iMTIuNSIgc3R5bGU9InN0cm9rZTojMTgxODE4O3N0cm9rZS13aWR0aDowLjU7IiB3aWR0aD0iMTI4IiB4PSI3MDUiIHk9IjEyMTMuOTY4OCIvPjx0ZXh0IGZpbGw9IiMwMDAwMDAiIGZvbnQtZmFtaWx5PSJzYW5zLXNlcmlmIiBmb250LXNpemU9IjEyIiBsZW5ndGhBZGp1c3Q9InNwYWNpbmciIHRleHRMZW5ndGg9IjEwOCIgeD0iNzE1IiB5PSIxMjM1LjMxMjUiPiYjMjM1NTg7dGVtTnVtJiMyODE1NTsmIzIxMTUyOyYjMjEwNDA7cmVzPC90ZXh0PjxyZWN0IGZpbGw9IiNGMUYxRjEiIGhlaWdodD0iMzIuODQzOCIgcng9IjEyLjUiIHJ5PSIxMi41IiBzdHlsZT0ic3Ryb2tlOiMxODE4MTg7c3Ryb2tlLXdpZHRoOjAuNTsiIHdpZHRoPSIxNDMiIHg9IjY5Ny41IiB5PSIxMjgxLjgxMjUiLz48dGV4dCBmaWxsPSIjMDAwMDAwIiBmb250LWZhbWlseT0ic2Fucy1zZXJpZiIgZm9udC1zaXplPSIxMiIgbGVuZ3RoQWRqdXN0PSJzcGFjaW5nIiB0ZXh0TGVuZ3RoPSIxMjMiIHg9IjcwNy41IiB5PSIxMzAzLjE1NjMiPiYjMzczMjU7JiMzMjYyMjt0ZW1OdW0mIzIwMDI2OyYjMzEzNTQ7JiMyMzM4MzsmIzMxNTI2OyYjMjAwMTg7PC90ZXh0Pjxwb2x5Z29uIGZpbGw9IiNGMUYxRjEiIHBvaW50cz0iNzQwLDExNjkuOTY4OCw3OTgsMTE2OS45Njg4LDgxMCwxMTgxLjk2ODgsNzk4LDExOTMuOTY4OCw3NDAsMTE5My45Njg4LDcyOCwxMTgxLjk2ODgsNzQwLDExNjkuOTY4OCIgc3R5bGU9InN0cm9rZTojMTgxODE4O3N0cm9rZS13aWR0aDowLjU7Ii8+PHRleHQgZmlsbD0iIzAwMDAwMCIgZm9udC1mYW1pbHk9InNhbnMtc2VyaWYiIGZvbnQtc2l6ZT0iMTEiIGxlbmd0aEFkanVzdD0ic3BhY2luZyIgdGV4dExlbmd0aD0iNTgiIHg9Ijc0MCIgeT0iMTE4Ni40ODA1Ij50ZW1OdW0mIzM4NzUwOyYjMzEzNTQ7PC90ZXh0Pjxwb2x5Z29uIGZpbGw9IiNGMUYxRjEiIHBvaW50cz0iNzY5LDEzMzQuNjU2Myw3ODEsMTM0Ni42NTYzLDc2OSwxMzU4LjY1NjMsNzU3LDEzNDYuNjU2Myw3NjksMTMzNC42NTYzIiBzdHlsZT0ic3Ryb2tlOiMxODE4MTg7c3Ryb2tlLXdpZHRoOjAuNTsiLz48cmVjdCBmaWxsPSIjRjFGMUYxIiBoZWlnaHQ9IjMyLjg0MzgiIHJ4PSIxMi41IiByeT0iMTIuNSIgc3R5bGU9InN0cm9rZTojMTgxODE4O3N0cm9rZS13aWR0aDowLjU7IiB3aWR0aD0iMjA4IiB4PSI2NjUiIHk9IjE0MjIuNjU2MyIvPjx0ZXh0IGZpbGw9IiMwMDAwMDAiIGZvbnQtZmFtaWx5PSJzYW5zLXNlcmlmIiBmb250LXNpemU9IjEyIiBsZW5ndGhBZGp1c3Q9InNwYWNpbmciIHRleHRMZW5ndGg9IjE4OCIgeD0iNjc1IiB5PSIxNDQ0Ij4mIzIzNTU4O29wZXJhJiMyNjYzMjsmIzM5MDMwOyYjMjA4MDM7JiMzMjAzMjsmIzIwOTg2OyYjMjY2MzI7JiMyNDE4MjsmIzI4MTU1OyYjMjExNTI7JiMyMTA0MDtyZXM8L3RleHQ+PHBvbHlnb24gZmlsbD0iI0YxRjFGMSIgcG9pbnRzPSI3MzcuNSwxMzc4LjY1NjMsODAwLjUsMTM3OC42NTYzLDgxMi41LDEzOTAuNjU2Myw4MDAuNSwxNDAyLjY1NjMsNzM3LjUsMTQwMi42NTYzLDcyNS41LDEzOTAuNjU2Myw3MzcuNSwxMzc4LjY1NjMiIHN0eWxlPSJzdHJva2U6IzE4MTgxODtzdHJva2Utd2lkdGg6MC41OyIvPjx0ZXh0IGZpbGw9IiMwMDAwMDAiIGZvbnQtZmFtaWx5PSJzYW5zLXNlcmlmIiBmb250LXNpemU9IjExIiBsZW5ndGhBZGp1c3Q9InNwYWNpbmciIHRleHRMZW5ndGg9IjYzIiB4PSI3MzcuNSIgeT0iMTM5NS4xNjgiPm9wZXJhJiMzODc1MDsmIzMxMzU0OyYjMjY2MzI7PC90ZXh0PjxyZWN0IGZpbGw9IiNGMUYxRjEiIGhlaWdodD0iMzIuODQzOCIgcng9IjEyLjUiIHJ5PSIxMi41IiBzdHlsZT0ic3Ryb2tlOiMxODE4MTg7c3Ryb2tlLXdpZHRoOjAuNTsiIHdpZHRoPSI4OCIgeD0iNzI1IiB5PSIxNDk3LjUiLz48dGV4dCBmaWxsPSIjMDAwMDAwIiBmb250LWZhbWlseT0ic2Fucy1zZXJpZiIgZm9udC1zaXplPSIxMiIgbGVuZ3RoQWRqdXN0PSJzcGFjaW5nIiB0ZXh0TGVuZ3RoPSI2OCIgeD0iNzM1IiB5PSIxNTE4Ljg0MzgiPnJldHVybiByZXM8L3RleHQ+PGVsbGlwc2UgY3g9Ijc2OSIgY3k9IjE1NjEuMzQzOCIgZmlsbD0ibm9uZSIgcng9IjExIiByeT0iMTEiIHN0eWxlPSJzdHJva2U6IzIyMjIyMjtzdHJva2Utd2lkdGg6MS4wOyIvPjxlbGxpcHNlIGN4PSI3NjkiIGN5PSIxNTYxLjM0MzgiIGZpbGw9IiMyMjIyMjIiIHJ4PSI2IiByeT0iNiIgc3R5bGU9InN0cm9rZTojMTExMTExO3N0cm9rZS13aWR0aDoxLjA7Ii8+PGxpbmUgc3R5bGU9InN0cm9rZTojMTgxODE4O3N0cm9rZS13aWR0aDoxLjA7IiB4MT0iNzY5IiB4Mj0iNzY5IiB5MT0iMzAiIHkyPSI1MCIvPjxwb2x5Z29uIGZpbGw9IiMxODE4MTgiIHBvaW50cz0iNzY1LDQwLDc2OSw1MCw3NzMsNDAsNzY5LDQ0IiBzdHlsZT0ic3Ryb2tlOiMxODE4MTg7c3Ryb2tlLXdpZHRoOjEuMDsiLz48bGluZSBzdHlsZT0ic3Ryb2tlOiMxODE4MTg7c3Ryb2tlLXdpZHRoOjEuMDsiIHgxPSI3NjkiIHgyPSI3NjkiIHkxPSI4Mi44NDM4IiB5Mj0iMTAyLjg0MzgiLz48cG9seWdvbiBmaWxsPSIjMTgxODE4IiBwb2ludHM9Ijc2NSw5Mi44NDM4LDc2OSwxMDIuODQzOCw3NzMsOTIuODQzOCw3NjksOTYuODQzOCIgc3R5bGU9InN0cm9rZTojMTgxODE4O3N0cm9rZS13aWR0aDoxLjA7Ii8+PGxpbmUgc3R5bGU9InN0cm9rZTojMTgxODE4O3N0cm9rZS13aWR0aDoxLjA7IiB4MT0iNzY5IiB4Mj0iNzY5IiB5MT0iMTM1LjY4NzUiIHkyPSIxNTUuNjg3NSIvPjxwb2x5Z29uIGZpbGw9IiMxODE4MTgiIHBvaW50cz0iNzY1LDE0NS42ODc1LDc2OSwxNTUuNjg3NSw3NzMsMTQ1LjY4NzUsNzY5LDE0OS42ODc1IiBzdHlsZT0ic3Ryb2tlOiMxODE4MTg7c3Ryb2tlLXdpZHRoOjEuMDsiLz48bGluZSBzdHlsZT0ic3Ryb2tlOiMxODE4MTg7c3Ryb2tlLXdpZHRoOjEuMDsiIHgxPSI3NjkiIHgyPSI3NjkiIHkxPSIxODguNTMxMyIgeTI9IjIwOC41MzEzIi8+PHBvbHlnb24gZmlsbD0iIzE4MTgxOCIgcG9pbnRzPSI3NjUsMTk4LjUzMTMsNzY5LDIwOC41MzEzLDc3MywxOTguNTMxMyw3NjksMjAyLjUzMTMiIHN0eWxlPSJzdHJva2U6IzE4MTgxODtzdHJva2Utd2lkdGg6MS4wOyIvPjxsaW5lIHN0eWxlPSJzdHJva2U6IzE4MTgxODtzdHJva2Utd2lkdGg6MS4wOyIgeDE9Ijc2OSIgeDI9Ijc2OSIgeTE9IjI0MS4zNzUiIHkyPSIyNjEuMzc1Ii8+PHBvbHlnb24gZmlsbD0iIzE4MTgxOCIgcG9pbnRzPSI3NjUsMjUxLjM3NSw3NjksMjYxLjM3NSw3NzMsMjUxLjM3NSw3NjksMjU1LjM3NSIgc3R5bGU9InN0cm9rZTojMTgxODE4O3N0cm9rZS13aWR0aDoxLjA7Ii8+PGxpbmUgc3R5bGU9InN0cm9rZTojMTgxODE4O3N0cm9rZS13aWR0aDoxLjA7IiB4MT0iNTgyLjUiIHgyPSI1ODIuNSIgeTE9IjUzNS45MDYzIiB5Mj0iNTcwLjkwNjMiLz48cG9seWdvbiBmaWxsPSIjMTgxODE4IiBwb2ludHM9IjU3OC41LDU2MC45MDYzLDU4Mi41LDU3MC45MDYzLDU4Ni41LDU2MC45MDYzLDU4Mi41LDU2NC45MDYzIiBzdHlsZT0ic3Ryb2tlOiMxODE4MTg7c3Ryb2tlLXdpZHRoOjEuMDsiLz48bGluZSBzdHlsZT0ic3Ryb2tlOiMxODE4MTg7c3Ryb2tlLXdpZHRoOjEuMDsiIHgxPSI1ODIuNSIgeDI9IjU4Mi41IiB5MT0iNDc5LjA2MjUiIHkyPSI1MDMuMDYyNSIvPjxwb2x5Z29uIGZpbGw9IiMxODE4MTgiIHBvaW50cz0iNTc4LjUsNDkzLjA2MjUsNTgyLjUsNTAzLjA2MjUsNTg2LjUsNDkzLjA2MjUsNTgyLjUsNDk3LjA2MjUiIHN0eWxlPSJzdHJva2U6IzE4MTgxODtzdHJva2Utd2lkdGg6MS4wOyIvPjxsaW5lIHN0eWxlPSJzdHJva2U6IzE4MTgxODtzdHJva2Utd2lkdGg6MS4wOyIgeDE9IjYyMy41IiB4Mj0iNjY0IiB5MT0iNDY3LjA2MjUiIHkyPSI0NjcuMDYyNSIvPjxwb2x5Z29uIGZpbGw9IiMxODE4MTgiIHBvaW50cz0iNjYwLDU0My40MDYzLDY2NCw1NTMuNDA2Myw2NjgsNTQzLjQwNjMsNjY0LDU0Ny40MDYzIiBzdHlsZT0ic3Ryb2tlOiMxODE4MTg7c3Ryb2tlLXdpZHRoOjEuMDsiLz48bGluZSBzdHlsZT0ic3Ryb2tlOiMxODE4MTg7c3Ryb2tlLXdpZHRoOjEuMDsiIHgxPSI2NjQiIHgyPSI2NjQiIHkxPSI0NjcuMDYyNSIgeTI9IjYzNS43NSIvPjxsaW5lIHN0eWxlPSJzdHJva2U6IzE4MTgxODtzdHJva2Utd2lkdGg6MS4wOyIgeDE9IjY2NCIgeDI9IjU5NC41IiB5MT0iNjM1Ljc1IiB5Mj0iNjM1Ljc1Ii8+PHBvbHlnb24gZmlsbD0iIzE4MTgxOCIgcG9pbnRzPSI2MDQuNSw2MzEuNzUsNTk0LjUsNjM1Ljc1LDYwNC41LDYzOS43NSw2MDAuNSw2MzUuNzUiIHN0eWxlPSJzdHJva2U6IzE4MTgxODtzdHJva2Utd2lkdGg6MS4wOyIvPjxsaW5lIHN0eWxlPSJzdHJva2U6IzE4MTgxODtzdHJva2Utd2lkdGg6MS4wOyIgeDE9IjU4Mi41IiB4Mj0iNTgyLjUiIHkxPSI2MDMuNzUiIHkyPSI2MjMuNzUiLz48cG9seWdvbiBmaWxsPSIjMTgxODE4IiBwb2ludHM9IjU3OC41LDYxMy43NSw1ODIuNSw2MjMuNzUsNTg2LjUsNjEzLjc1LDU4Mi41LDYxNy43NSIgc3R5bGU9InN0cm9rZTojMTgxODE4O3N0cm9rZS13aWR0aDoxLjA7Ii8+PGxpbmUgc3R5bGU9InN0cm9rZTojMTgxODE4O3N0cm9rZS13aWR0aDoxLjA7IiB4MT0iNjIwLjUiIHgyPSI2MTAuNSIgeTE9Ijc2MS43NSIgeTI9Ijc2MS43NSIvPjxsaW5lIHN0eWxlPSJzdHJva2U6IzE4MTgxODtzdHJva2Utd2lkdGg6MS4wOyIgeDE9IjYxMC41IiB4Mj0iNjEwLjUiIHkxPSI3NjEuNzUiIHkyPSI3ODMuNzUiLz48cG9seWdvbiBmaWxsPSIjMTgxODE4IiBwb2ludHM9IjYwNi41LDc3My43NSw2MTAuNSw3ODMuNzUsNjE0LjUsNzczLjc1LDYxMC41LDc3Ny43NSIgc3R5bGU9InN0cm9rZTojMTgxODE4O3N0cm9rZS13aWR0aDoxLjA7Ii8+PGxpbmUgc3R5bGU9InN0cm9rZTojMTgxODE4O3N0cm9rZS13aWR0aDoxLjA7IiB4MT0iOTU4LjUiIHgyPSI5NjguNSIgeTE9Ijc2MS43NSIgeTI9Ijc2MS43NSIvPjxsaW5lIHN0eWxlPSJzdHJva2U6IzE4MTgxODtzdHJva2Utd2lkdGg6MS4wOyIgeDE9Ijk2OC41IiB4Mj0iOTY4LjUiIHkxPSI3NjEuNzUiIHkyPSI3ODMuNzUiLz48cG9seWdvbiBmaWxsPSIjMTgxODE4IiBwb2ludHM9Ijk2NC41LDc3My43NSw5NjguNSw3ODMuNzUsOTcyLjUsNzczLjc1LDk2OC41LDc3Ny43NSIgc3R5bGU9InN0cm9rZTojMTgxODE4O3N0cm9rZS13aWR0aDoxLjA7Ii8+PGxpbmUgc3R5bGU9InN0cm9rZTojMTgxODE4O3N0cm9rZS13aWR0aDoxLjA7IiB4MT0iNjEwLjUiIHgyPSI2MTAuNSIgeTE9IjgxNi41OTM4IiB5Mj0iODM0LjU5MzgiLz48bGluZSBzdHlsZT0ic3Ryb2tlOiMxODE4MTg7c3Ryb2tlLXdpZHRoOjEuMDsiIHgxPSI2MTAuNSIgeDI9Ijc3Ny41IiB5MT0iODM0LjU5MzgiIHkyPSI4MzQuNTkzOCIvPjxwb2x5Z29uIGZpbGw9IiMxODE4MTgiIHBvaW50cz0iNzY3LjUsODMwLjU5MzgsNzc3LjUsODM0LjU5MzgsNzY3LjUsODM4LjU5MzgsNzcxLjUsODM0LjU5MzgiIHN0eWxlPSJzdHJva2U6IzE4MTgxODtzdHJva2Utd2lkdGg6MS4wOyIvPjxsaW5lIHN0eWxlPSJzdHJva2U6IzE4MTgxODtzdHJva2Utd2lkdGg6MS4wOyIgeDE9Ijk2OC41IiB4Mj0iOTY4LjUiIHkxPSI4MTYuNTkzOCIgeTI9IjgzNC41OTM4Ii8+PGxpbmUgc3R5bGU9InN0cm9rZTojMTgxODE4O3N0cm9rZS13aWR0aDoxLjA7IiB4MT0iOTY4LjUiIHgyPSI4MDEuNSIgeTE9IjgzNC41OTM4IiB5Mj0iODM0LjU5MzgiLz48cG9seWdvbiBmaWxsPSIjMTgxODE4IiBwb2ludHM9IjgxMS41LDgzMC41OTM4LDgwMS41LDgzNC41OTM4LDgxMS41LDgzOC41OTM4LDgwNy41LDgzNC41OTM4IiBzdHlsZT0ic3Ryb2tlOiMxODE4MTg7c3Ryb2tlLXdpZHRoOjEuMDsiLz48bGluZSBzdHlsZT0ic3Ryb2tlOiMxODE4MTg7c3Ryb2tlLXdpZHRoOjEuMDsiIHgxPSI3ODkuNSIgeDI9Ijc4OS41IiB5MT0iNzI1Ljc1IiB5Mj0iNzQ5Ljc1Ii8+PHBvbHlnb24gZmlsbD0iIzE4MTgxOCIgcG9pbnRzPSI3ODUuNSw3MzkuNzUsNzg5LjUsNzQ5Ljc1LDc5My41LDczOS43NSw3ODkuNSw3NDMuNzUiIHN0eWxlPSJzdHJva2U6IzE4MTgxODtzdHJva2Utd2lkdGg6MS4wOyIvPjxsaW5lIHN0eWxlPSJzdHJva2U6IzE4MTgxODtzdHJva2Utd2lkdGg6MS4wOyIgeDE9Ijc4OS41IiB4Mj0iNzg5LjUiIHkxPSI4NDYuNTkzOCIgeTI9Ijg1OC41OTM4Ii8+PGxpbmUgc3R5bGU9InN0cm9rZTojMTgxODE4O3N0cm9rZS13aWR0aDoxLjA7IiB4MT0iNzg5LjUiIHgyPSIxMDE2LjUiIHkxPSI4NTguNTkzOCIgeTI9Ijg1OC41OTM4Ii8+PHBvbHlnb24gZmlsbD0iIzE4MTgxOCIgcG9pbnRzPSIxMDEyLjUsNzk2LjE3MTksMTAxNi41LDc4Ni4xNzE5LDEwMjAuNSw3OTYuMTcxOSwxMDE2LjUsNzkyLjE3MTkiIHN0eWxlPSJzdHJva2U6IzE4MTgxODtzdHJva2Utd2lkdGg6MS4wOyIvPjxsaW5lIHN0eWxlPSJzdHJva2U6IzE4MTgxODtzdHJva2Utd2lkdGg6MS4wOyIgeDE9IjEwMTYuNSIgeDI9IjEwMTYuNSIgeTE9IjcxMy43NSIgeTI9Ijg1OC41OTM4Ii8+PGxpbmUgc3R5bGU9InN0cm9rZTojMTgxODE4O3N0cm9rZS13aWR0aDoxLjA7IiB4MT0iMTAxNi41IiB4Mj0iODMzIiB5MT0iNzEzLjc1IiB5Mj0iNzEzLjc1Ii8+PHBvbHlnb24gZmlsbD0iIzE4MTgxOCIgcG9pbnRzPSI4NDMsNzA5Ljc1LDgzMyw3MTMuNzUsODQzLDcxNy43NSw4MzksNzEzLjc1IiBzdHlsZT0ic3Ryb2tlOiMxODE4MTg7c3Ryb2tlLXdpZHRoOjEuMDsiLz48bGluZSBzdHlsZT0ic3Ryb2tlOiMxODE4MTg7c3Ryb2tlLXdpZHRoOjEuMDsiIHgxPSI3NDYiIHgyPSI0OTIuNSIgeTE9IjcxMy43NSIgeTI9IjcxMy43NSIvPjxwb2x5Z29uIGZpbGw9IiMxODE4MTgiIHBvaW50cz0iNDg4LjUsNzgyLjE3MTksNDkyLjUsNzkyLjE3MTksNDk2LjUsNzgyLjE3MTksNDkyLjUsNzg2LjE3MTkiIHN0eWxlPSJzdHJva2U6IzE4MTgxODtzdHJva2Utd2lkdGg6MS4wOyIvPjxsaW5lIHN0eWxlPSJzdHJva2U6IzE4MTgxODtzdHJva2Utd2lkdGg6MS4wOyIgeDE9IjQ5Mi41IiB4Mj0iNDkyLjUiIHkxPSI3MTMuNzUiIHkyPSI4NzAuNTkzOCIvPjxsaW5lIHN0eWxlPSJzdHJva2U6IzE4MTgxODtzdHJva2Utd2lkdGg6MS4wOyIgeDE9IjQ5Mi41IiB4Mj0iNzg5LjUiIHkxPSI4NzAuNTkzOCIgeTI9Ijg3MC41OTM4Ii8+PGxpbmUgc3R5bGU9InN0cm9rZTojMTgxODE4O3N0cm9rZS13aWR0aDoxLjA7IiB4MT0iNzg5LjUiIHgyPSI3ODkuNSIgeTE9Ijg3MC41OTM4IiB5Mj0iOTA1LjU5MzgiLz48cG9seWdvbiBmaWxsPSIjMTgxODE4IiBwb2ludHM9Ijc4NS41LDg5NS41OTM4LDc4OS41LDkwNS41OTM4LDc5My41LDg5NS41OTM4LDc4OS41LDg5OS41OTM4IiBzdHlsZT0ic3Ryb2tlOiMxODE4MTg7c3Ryb2tlLXdpZHRoOjEuMDsiLz48bGluZSBzdHlsZT0ic3Ryb2tlOiMxODE4MTg7c3Ryb2tlLXdpZHRoOjEuMDsiIHgxPSI1MzkiIHgyPSI0MDEuNSIgeTE9IjY3OS43NSIgeTI9IjY3OS43NSIvPjxsaW5lIHN0eWxlPSJzdHJva2U6IzE4MTgxODtzdHJva2Utd2lkdGg6MS4wOyIgeDE9IjQwMS41IiB4Mj0iNDAxLjUiIHkxPSI2NzkuNzUiIHkyPSI3MDEuNzUiLz48cG9seWdvbiBmaWxsPSIjMTgxODE4IiBwb2ludHM9IjM5Ny41LDY5MS43NSw0MDEuNSw3MDEuNzUsNDA1LjUsNjkxLjc1LDQwMS41LDY5NS43NSIgc3R5bGU9InN0cm9rZTojMTgxODE4O3N0cm9rZS13aWR0aDoxLjA7Ii8+PGxpbmUgc3R5bGU9InN0cm9rZTojMTgxODE4O3N0cm9rZS13aWR0aDoxLjA7IiB4MT0iNjI2IiB4Mj0iNzg5LjUiIHkxPSI2NzkuNzUiIHkyPSI2NzkuNzUiLz48bGluZSBzdHlsZT0ic3Ryb2tlOiMxODE4MTg7c3Ryb2tlLXdpZHRoOjEuMDsiIHgxPSI3ODkuNSIgeDI9Ijc4OS41IiB5MT0iNjc5Ljc1IiB5Mj0iNzAxLjc1Ii8+PHBvbHlnb24gZmlsbD0iIzE4MTgxOCIgcG9pbnRzPSI3ODUuNSw2OTEuNzUsNzg5LjUsNzAxLjc1LDc5My41LDY5MS43NSw3ODkuNSw2OTUuNzUiIHN0eWxlPSJzdHJva2U6IzE4MTgxODtzdHJva2Utd2lkdGg6MS4wOyIvPjxsaW5lIHN0eWxlPSJzdHJva2U6IzE4MTgxODtzdHJva2Utd2lkdGg6MS4wOyIgeDE9IjQwMS41IiB4Mj0iNDAxLjUiIHkxPSI3MzQuNTkzOCIgeTI9Ijk1Ni40Mzc1Ii8+PGxpbmUgc3R5bGU9InN0cm9rZTojMTgxODE4O3N0cm9rZS13aWR0aDoxLjA7IiB4MT0iNDAxLjUiIHgyPSI1NzAuNSIgeTE9Ijk1Ni40Mzc1IiB5Mj0iOTU2LjQzNzUiLz48cG9seWdvbiBmaWxsPSIjMTgxODE4IiBwb2ludHM9IjU2MC41LDk1Mi40Mzc1LDU3MC41LDk1Ni40Mzc1LDU2MC41LDk2MC40Mzc1LDU2NC41LDk1Ni40Mzc1IiBzdHlsZT0ic3Ryb2tlOiMxODE4MTg7c3Ryb2tlLXdpZHRoOjEuMDsiLz48bGluZSBzdHlsZT0ic3Ryb2tlOiMxODE4MTg7c3Ryb2tlLXdpZHRoOjEuMDsiIHgxPSI3ODkuNSIgeDI9Ijc4OS41IiB5MT0iOTM4LjQzNzUiIHkyPSI5NTYuNDM3NSIvPjxsaW5lIHN0eWxlPSJzdHJva2U6IzE4MTgxODtzdHJva2Utd2lkdGg6MS4wOyIgeDE9Ijc4OS41IiB4Mj0iNTk0LjUiIHkxPSI5NTYuNDM3NSIgeTI9Ijk1Ni40Mzc1Ii8+PHBvbHlnb24gZmlsbD0iIzE4MTgxOCIgcG9pbnRzPSI2MDQuNSw5NTIuNDM3NSw1OTQuNSw5NTYuNDM3NSw2MDQuNSw5NjAuNDM3NSw2MDAuNSw5NTYuNDM3NSIgc3R5bGU9InN0cm9rZTojMTgxODE4O3N0cm9rZS13aWR0aDoxLjA7Ii8+PGxpbmUgc3R5bGU9InN0cm9rZTojMTgxODE4O3N0cm9rZS13aWR0aDoxLjA7IiB4MT0iNTgyLjUiIHgyPSI1ODIuNSIgeTE9IjY0Ny43NSIgeTI9IjY2Ny43NSIvPjxwb2x5Z29uIGZpbGw9IiMxODE4MTgiIHBvaW50cz0iNTc4LjUsNjU3Ljc1LDU4Mi41LDY2Ny43NSw1ODYuNSw2NTcuNzUsNTgyLjUsNjYxLjc1IiBzdHlsZT0ic3Ryb2tlOiMxODE4MTg7c3Ryb2tlLXdpZHRoOjEuMDsiLz48bGluZSBzdHlsZT0ic3Ryb2tlOiMxODE4MTg7c3Ryb2tlLXdpZHRoOjEuMDsiIHgxPSIxMTAyIiB4Mj0iMTEwMiIgeTE9IjUzNS45MDYzIiB5Mj0iNTcwLjkwNjMiLz48cG9seWdvbiBmaWxsPSIjMTgxODE4IiBwb2ludHM9IjEwOTgsNTYwLjkwNjMsMTEwMiw1NzAuOTA2MywxMTA2LDU2MC45MDYzLDExMDIsNTY0LjkwNjMiIHN0eWxlPSJzdHJva2U6IzE4MTgxODtzdHJva2Utd2lkdGg6MS4wOyIvPjxsaW5lIHN0eWxlPSJzdHJva2U6IzE4MTgxODtzdHJva2Utd2lkdGg6MS4wOyIgeDE9IjExMDIiIHgyPSIxMTAyIiB5MT0iNDc5LjA2MjUiIHkyPSI1MDMuMDYyNSIvPjxwb2x5Z29uIGZpbGw9IiMxODE4MTgiIHBvaW50cz0iMTA5OCw0OTMuMDYyNSwxMTAyLDUwMy4wNjI1LDExMDYsNDkzLjA2MjUsMTEwMiw0OTcuMDYyNSIgc3R5bGU9InN0cm9rZTojMTgxODE4O3N0cm9rZS13aWR0aDoxLjA7Ii8+PGxpbmUgc3R5bGU9InN0cm9rZTojMTgxODE4O3N0cm9rZS13aWR0aDoxLjA7IiB4MT0iMTE0MyIgeDI9IjExODMuNSIgeTE9IjQ2Ny4wNjI1IiB5Mj0iNDY3LjA2MjUiLz48cG9seWdvbiBmaWxsPSIjMTgxODE4IiBwb2ludHM9IjExNzkuNSw1NDMuNDA2MywxMTgzLjUsNTUzLjQwNjMsMTE4Ny41LDU0My40MDYzLDExODMuNSw1NDcuNDA2MyIgc3R5bGU9InN0cm9rZTojMTgxODE4O3N0cm9rZS13aWR0aDoxLjA7Ii8+PGxpbmUgc3R5bGU9InN0cm9rZTojMTgxODE4O3N0cm9rZS13aWR0aDoxLjA7IiB4MT0iMTE4My41IiB4Mj0iMTE4My41IiB5MT0iNDY3LjA2MjUiIHkyPSI2MzUuNzUiLz48bGluZSBzdHlsZT0ic3Ryb2tlOiMxODE4MTg7c3Ryb2tlLXdpZHRoOjEuMDsiIHgxPSIxMTgzLjUiIHgyPSIxMTE0IiB5MT0iNjM1Ljc1IiB5Mj0iNjM1Ljc1Ii8+PHBvbHlnb24gZmlsbD0iIzE4MTgxOCIgcG9pbnRzPSIxMTI0LDYzMS43NSwxMTE0LDYzNS43NSwxMTI0LDYzOS43NSwxMTIwLDYzNS43NSIgc3R5bGU9InN0cm9rZTojMTgxODE4O3N0cm9rZS13aWR0aDoxLjA7Ii8+PGxpbmUgc3R5bGU9InN0cm9rZTojMTgxODE4O3N0cm9rZS13aWR0aDoxLjA7IiB4MT0iMTEwMiIgeDI9IjExMDIiIHkxPSI2MDMuNzUiIHkyPSI2MjMuNzUiLz48cG9seWdvbiBmaWxsPSIjMTgxODE4IiBwb2ludHM9IjEwOTgsNjEzLjc1LDExMDIsNjIzLjc1LDExMDYsNjEzLjc1LDExMDIsNjE3Ljc1IiBzdHlsZT0ic3Ryb2tlOiMxODE4MTg7c3Ryb2tlLXdpZHRoOjEuMDsiLz48bGluZSBzdHlsZT0ic3Ryb2tlOiMxODE4MTg7c3Ryb2tlLXdpZHRoOjEuMDsiIHgxPSIxMTAyIiB4Mj0iMTEwMiIgeTE9IjY0Ny43NSIgeTI9IjY2Ny43NSIvPjxwb2x5Z29uIGZpbGw9IiMxODE4MTgiIHBvaW50cz0iMTA5OCw2NTcuNzUsMTEwMiw2NjcuNzUsMTEwNiw2NTcuNzUsMTEwMiw2NjEuNzUiIHN0eWxlPSJzdHJva2U6IzE4MTgxODtzdHJva2Utd2lkdGg6MS4wOyIvPjxsaW5lIHN0eWxlPSJzdHJva2U6IzE4MTgxODtzdHJva2Utd2lkdGg6MS4wOyIgeDE9IjEzMDQuNSIgeDI9IjEzMDQuNSIgeTE9IjUzNS45MDYzIiB5Mj0iNTcwLjkwNjMiLz48cG9seWdvbiBmaWxsPSIjMTgxODE4IiBwb2ludHM9IjEzMDAuNSw1NjAuOTA2MywxMzA0LjUsNTcwLjkwNjMsMTMwOC41LDU2MC45MDYzLDEzMDQuNSw1NjQuOTA2MyIgc3R5bGU9InN0cm9rZTojMTgxODE4O3N0cm9rZS13aWR0aDoxLjA7Ii8+PGxpbmUgc3R5bGU9InN0cm9rZTojMTgxODE4O3N0cm9rZS13aWR0aDoxLjA7IiB4MT0iMTMwNC41IiB4Mj0iMTMwNC41IiB5MT0iNDc5LjA2MjUiIHkyPSI1MDMuMDYyNSIvPjxwb2x5Z29uIGZpbGw9IiMxODE4MTgiIHBvaW50cz0iMTMwMC41LDQ5My4wNjI1LDEzMDQuNSw1MDMuMDYyNSwxMzA4LjUsNDkzLjA2MjUsMTMwNC41LDQ5Ny4wNjI1IiBzdHlsZT0ic3Ryb2tlOiMxODE4MTg7c3Ryb2tlLXdpZHRoOjEuMDsiLz48bGluZSBzdHlsZT0ic3Ryb2tlOiMxODE4MTg7c3Ryb2tlLXdpZHRoOjEuMDsiIHgxPSIxMzQ1LjUiIHgyPSIxMzg2IiB5MT0iNDY3LjA2MjUiIHkyPSI0NjcuMDYyNSIvPjxwb2x5Z29uIGZpbGw9IiMxODE4MTgiIHBvaW50cz0iMTM4Miw1NDMuNDA2MywxMzg2LDU1My40MDYzLDEzOTAsNTQzLjQwNjMsMTM4Niw1NDcuNDA2MyIgc3R5bGU9InN0cm9rZTojMTgxODE4O3N0cm9rZS13aWR0aDoxLjA7Ii8+PGxpbmUgc3R5bGU9InN0cm9rZTojMTgxODE4O3N0cm9rZS13aWR0aDoxLjA7IiB4MT0iMTM4NiIgeDI9IjEzODYiIHkxPSI0NjcuMDYyNSIgeTI9IjYzNS43NSIvPjxsaW5lIHN0eWxlPSJzdHJva2U6IzE4MTgxODtzdHJva2Utd2lkdGg6MS4wOyIgeDE9IjEzODYiIHgyPSIxMzE2LjUiIHkxPSI2MzUuNzUiIHkyPSI2MzUuNzUiLz48cG9seWdvbiBmaWxsPSIjMTgxODE4IiBwb2ludHM9IjEzMjYuNSw2MzEuNzUsMTMxNi41LDYzNS43NSwxMzI2LjUsNjM5Ljc1LDEzMjIuNSw2MzUuNzUiIHN0eWxlPSJzdHJva2U6IzE4MTgxODtzdHJva2Utd2lkdGg6MS4wOyIvPjxsaW5lIHN0eWxlPSJzdHJva2U6IzE4MTgxODtzdHJva2Utd2lkdGg6MS4wOyIgeDE9IjEzMDQuNSIgeDI9IjEzMDQuNSIgeTE9IjYwMy43NSIgeTI9IjYyMy43NSIvPjxwb2x5Z29uIGZpbGw9IiMxODE4MTgiIHBvaW50cz0iMTMwMC41LDYxMy43NSwxMzA0LjUsNjIzLjc1LDEzMDguNSw2MTMuNzUsMTMwNC41LDYxNy43NSIgc3R5bGU9InN0cm9rZTojMTgxODE4O3N0cm9rZS13aWR0aDoxLjA7Ii8+PGxpbmUgc3R5bGU9InN0cm9rZTojMTgxODE4O3N0cm9rZS13aWR0aDoxLjA7IiB4MT0iMTMwNC41IiB4Mj0iMTMwNC41IiB5MT0iNjQ3Ljc1IiB5Mj0iNjY3Ljc1Ii8+PHBvbHlnb24gZmlsbD0iIzE4MTgxOCIgcG9pbnRzPSIxMzAwLjUsNjU3Ljc1LDEzMDQuNSw2NjcuNzUsMTMwOC41LDY1Ny43NSwxMzA0LjUsNjYxLjc1IiBzdHlsZT0ic3Ryb2tlOiMxODE4MTg7c3Ryb2tlLXdpZHRoOjEuMDsiLz48bGluZSBzdHlsZT0ic3Ryb2tlOiMxODE4MTg7c3Ryb2tlLXdpZHRoOjEuMDsiIHgxPSIxMzA0LjUiIHgyPSIxMzA0LjUiIHkxPSI4MDcuNTkzOCIgeTI9IjgzMS41OTM4Ii8+PHBvbHlnb24gZmlsbD0iIzE4MTgxOCIgcG9pbnRzPSIxMzAwLjUsODIxLjU5MzgsMTMwNC41LDgzMS41OTM4LDEzMDguNSw4MjEuNTkzOCwxMzA0LjUsODI1LjU5MzgiIHN0eWxlPSJzdHJva2U6IzE4MTgxODtzdHJva2Utd2lkdGg6MS4wOyIvPjxsaW5lIHN0eWxlPSJzdHJva2U6IzE4MTgxODtzdHJva2Utd2lkdGg6MS4wOyIgeDE9IjEzNjIuNSIgeDI9IjEzNzQuNSIgeTE9Ijc5NS41OTM4IiB5Mj0iNzk1LjU5MzgiLz48cG9seWdvbiBmaWxsPSIjMTgxODE4IiBwb2ludHM9IjEzNzAuNSw4MzguMDE1NiwxMzc0LjUsODQ4LjAxNTYsMTM3OC41LDgzOC4wMTU2LDEzNzQuNSw4NDIuMDE1NiIgc3R5bGU9InN0cm9rZTojMTgxODE4O3N0cm9rZS13aWR0aDoxLjA7Ii8+PGxpbmUgc3R5bGU9InN0cm9rZTojMTgxODE4O3N0cm9rZS13aWR0aDoxLjA7IiB4MT0iMTM3NC41IiB4Mj0iMTM3NC41IiB5MT0iNzk1LjU5MzgiIHkyPSI5MDAuNDM3NSIvPjxsaW5lIHN0eWxlPSJzdHJva2U6IzE4MTgxODtzdHJva2Utd2lkdGg6MS4wOyIgeDE9IjEzNzQuNSIgeDI9IjEzMTYuNSIgeTE9IjkwMC40Mzc1IiB5Mj0iOTAwLjQzNzUiLz48cG9seWdvbiBmaWxsPSIjMTgxODE4IiBwb2ludHM9IjEzMjYuNSw4OTYuNDM3NSwxMzE2LjUsOTAwLjQzNzUsMTMyNi41LDkwNC40Mzc1LDEzMjIuNSw5MDAuNDM3NSIgc3R5bGU9InN0cm9rZTojMTgxODE4O3N0cm9rZS13aWR0aDoxLjA7Ii8+PGxpbmUgc3R5bGU9InN0cm9rZTojMTgxODE4O3N0cm9rZS13aWR0aDoxLjA7IiB4MT0iMTMwNC41IiB4Mj0iMTMwNC41IiB5MT0iODY0LjQzNzUiIHkyPSI4ODguNDM3NSIvPjxwb2x5Z29uIGZpbGw9IiMxODE4MTgiIHBvaW50cz0iMTMwMC41LDg3OC40Mzc1LDEzMDQuNSw4ODguNDM3NSwxMzA4LjUsODc4LjQzNzUsMTMwNC41LDg4Mi40Mzc1IiBzdHlsZT0ic3Ryb2tlOiMxODE4MTg7c3Ryb2tlLXdpZHRoOjEuMDsiLz48bGluZSBzdHlsZT0ic3Ryb2tlOiMxODE4MTg7c3Ryb2tlLXdpZHRoOjEuMDsiIHgxPSIxMzA0LjUiIHgyPSIxMzA0LjUiIHkxPSI5MTIuNDM3NSIgeTI9Ijk0Ny40Mzc1Ii8+PHBvbHlnb24gZmlsbD0iIzE4MTgxOCIgcG9pbnRzPSIxMzAwLjUsOTM3LjQzNzUsMTMwNC41LDk0Ny40Mzc1LDEzMDguNSw5MzcuNDM3NSwxMzA0LjUsOTQxLjQzNzUiIHN0eWxlPSJzdHJva2U6IzE4MTgxODtzdHJva2Utd2lkdGg6MS4wOyIvPjxsaW5lIHN0eWxlPSJzdHJva2U6IzE4MTgxODtzdHJva2Utd2lkdGg6MS4wOyIgeDE9IjEzMDQuNSIgeDI9IjEzMDQuNSIgeTE9Ijk4MC4yODEzIiB5Mj0iMTAwMC4yODEzIi8+PHBvbHlnb24gZmlsbD0iIzE4MTgxOCIgcG9pbnRzPSIxMzAwLjUsOTkwLjI4MTMsMTMwNC41LDEwMDAuMjgxMywxMzA4LjUsOTkwLjI4MTMsMTMwNC41LDk5NC4yODEzIiBzdHlsZT0ic3Ryb2tlOiMxODE4MTg7c3Ryb2tlLXdpZHRoOjEuMDsiLz48bGluZSBzdHlsZT0ic3Ryb2tlOiMxODE4MTg7c3Ryb2tlLXdpZHRoOjEuMDsiIHgxPSIxMzA0LjUiIHgyPSIxMzA0LjUiIHkxPSI3NTkuNTkzOCIgeTI9Ijc4My41OTM4Ii8+PHBvbHlnb24gZmlsbD0iIzE4MTgxOCIgcG9pbnRzPSIxMzAwLjUsNzczLjU5MzgsMTMwNC41LDc4My41OTM4LDEzMDguNSw3NzMuNTkzOCwxMzA0LjUsNzc3LjU5MzgiIHN0eWxlPSJzdHJva2U6IzE4MTgxODtzdHJva2Utd2lkdGg6MS4wOyIvPjxsaW5lIHN0eWxlPSJzdHJva2U6IzE4MTgxODtzdHJva2Utd2lkdGg6MS4wOyIgeDE9IjEzMDQuNSIgeDI9IjEzMDQuNSIgeTE9IjEwMzMuMTI1IiB5Mj0iMTA0My4xMjUiLz48bGluZSBzdHlsZT0ic3Ryb2tlOiMxODE4MTg7c3Ryb2tlLXdpZHRoOjEuMDsiIHgxPSIxMzA0LjUiIHgyPSIxNDA3LjUiIHkxPSIxMDQzLjEyNSIgeTI9IjEwNDMuMTI1Ii8+PHBvbHlnb24gZmlsbD0iIzE4MTgxOCIgcG9pbnRzPSIxNDAzLjUsOTEzLjg1OTQsMTQwNy41LDkwMy44NTk0LDE0MTEuNSw5MTMuODU5NCwxNDA3LjUsOTA5Ljg1OTQiIHN0eWxlPSJzdHJva2U6IzE4MTgxODtzdHJva2Utd2lkdGg6MS4wOyIvPjxsaW5lIHN0eWxlPSJzdHJva2U6IzE4MTgxODtzdHJva2Utd2lkdGg6MS4wOyIgeDE9IjE0MDcuNSIgeDI9IjE0MDcuNSIgeTE9Ijc0Ny41OTM4IiB5Mj0iMTA0My4xMjUiLz48bGluZSBzdHlsZT0ic3Ryb2tlOiMxODE4MTg7c3Ryb2tlLXdpZHRoOjEuMDsiIHgxPSIxNDA3LjUiIHgyPSIxMzQ4IiB5MT0iNzQ3LjU5MzgiIHkyPSI3NDcuNTkzOCIvPjxwb2x5Z29uIGZpbGw9IiMxODE4MTgiIHBvaW50cz0iMTM1OCw3NDMuNTkzOCwxMzQ4LDc0Ny41OTM4LDEzNTgsNzUxLjU5MzgsMTM1NCw3NDcuNTkzOCIgc3R5bGU9InN0cm9rZTojMTgxODE4O3N0cm9rZS13aWR0aDoxLjA7Ii8+PGxpbmUgc3R5bGU9InN0cm9rZTojMTgxODE4O3N0cm9rZS13aWR0aDoxLjA7IiB4MT0iMTI2MSIgeDI9IjEyMDEuNSIgeTE9Ijc0Ny41OTM4IiB5Mj0iNzQ3LjU5MzgiLz48cG9seWdvbiBmaWxsPSIjMTgxODE4IiBwb2ludHM9IjExOTcuNSw4OTkuODU5NCwxMjAxLjUsOTA5Ljg1OTQsMTIwNS41LDg5OS44NTk0LDEyMDEuNSw5MDMuODU5NCIgc3R5bGU9InN0cm9rZTojMTgxODE4O3N0cm9rZS13aWR0aDoxLjA7Ii8+PGxpbmUgc3R5bGU9InN0cm9rZTojMTgxODE4O3N0cm9rZS13aWR0aDoxLjA7IiB4MT0iMTIwMS41IiB4Mj0iMTIwMS41IiB5MT0iNzQ3LjU5MzgiIHkyPSIxMDU1LjEyNSIvPjxsaW5lIHN0eWxlPSJzdHJva2U6IzE4MTgxODtzdHJva2Utd2lkdGg6MS4wOyIgeDE9IjEyMDEuNSIgeDI9IjEzMDQuNSIgeTE9IjEwNTUuMTI1IiB5Mj0iMTA1NS4xMjUiLz48bGluZSBzdHlsZT0ic3Ryb2tlOiMxODE4MTg7c3Ryb2tlLXdpZHRoOjEuMDsiIHgxPSIxMzA0LjUiIHgyPSIxMzA0LjUiIHkxPSIxMDU1LjEyNSIgeTI9IjEwNzUuMTI1Ii8+PHBvbHlnb24gZmlsbD0iIzE4MTgxOCIgcG9pbnRzPSIxMzAwLjUsMTA2NS4xMjUsMTMwNC41LDEwNzUuMTI1LDEzMDguNSwxMDY1LjEyNSwxMzA0LjUsMTA2OS4xMjUiIHN0eWxlPSJzdHJva2U6IzE4MTgxODtzdHJva2Utd2lkdGg6MS4wOyIvPjxsaW5lIHN0eWxlPSJzdHJva2U6IzE4MTgxODtzdHJva2Utd2lkdGg6MS4wOyIgeDE9IjEzMDQuNSIgeDI9IjEzMDQuNSIgeTE9IjcwMC41OTM4IiB5Mj0iNzM1LjU5MzgiLz48cG9seWdvbiBmaWxsPSIjMTgxODE4IiBwb2ludHM9IjEzMDAuNSw3MjUuNTkzOCwxMzA0LjUsNzM1LjU5MzgsMTMwOC41LDcyNS41OTM4LDEzMDQuNSw3MjkuNTkzOCIgc3R5bGU9InN0cm9rZTojMTgxODE4O3N0cm9rZS13aWR0aDoxLjA7Ii8+PGxpbmUgc3R5bGU9InN0cm9rZTojMTgxODE4O3N0cm9rZS13aWR0aDoxLjA7IiB4MT0iODguNSIgeDI9Ijg4LjUiIHkxPSI0MzUuMDYyNSIgeTI9IjQ1NS4wNjI1Ii8+PHBvbHlnb24gZmlsbD0iIzE4MTgxOCIgcG9pbnRzPSI4NC41LDQ0NS4wNjI1LDg4LjUsNDU1LjA2MjUsOTIuNSw0NDUuMDYyNSw4OC41LDQ0OS4wNjI1IiBzdHlsZT0ic3Ryb2tlOiMxODE4MTg7c3Ryb2tlLXdpZHRoOjEuMDsiLz48bGluZSBzdHlsZT0ic3Ryb2tlOiMxODE4MTg7c3Ryb2tlLXdpZHRoOjEuMDsiIHgxPSI4OC41IiB4Mj0iODguNSIgeTE9IjQ4Ny45MDYzIiB5Mj0iMTA3NS4xMjUiLz48cG9seWdvbiBmaWxsPSIjMTgxODE4IiBwb2ludHM9Ijg0LjUsMTA2NS4xMjUsODguNSwxMDc1LjEyNSw5Mi41LDEwNjUuMTI1LDg4LjUsMTA2OS4xMjUiIHN0eWxlPSJzdHJva2U6IzE4MTgxODtzdHJva2Utd2lkdGg6MS4wOyIvPjxsaW5lIHN0eWxlPSJzdHJva2U6IzE4MTgxODtzdHJva2Utd2lkdGg6MS4wOyIgeDE9IjIzNS41IiB4Mj0iMjM1LjUiIHkxPSI0MzUuMDYyNSIgeTI9IjQ1NS4wNjI1Ii8+PHBvbHlnb24gZmlsbD0iIzE4MTgxOCIgcG9pbnRzPSIyMzEuNSw0NDUuMDYyNSwyMzUuNSw0NTUuMDYyNSwyMzkuNSw0NDUuMDYyNSwyMzUuNSw0NDkuMDYyNSIgc3R5bGU9InN0cm9rZTojMTgxODE4O3N0cm9rZS13aWR0aDoxLjA7Ii8+PGxpbmUgc3R5bGU9InN0cm9rZTojMTgxODE4O3N0cm9rZS13aWR0aDoxLjA7IiB4MT0iMjM1LjUiIHgyPSIyMzUuNSIgeTE9IjQ4Ny45MDYzIiB5Mj0iMTA3NS4xMjUiLz48cG9seWdvbiBmaWxsPSIjMTgxODE4IiBwb2ludHM9IjIzMS41LDEwNjUuMTI1LDIzNS41LDEwNzUuMTI1LDIzOS41LDEwNjUuMTI1LDIzNS41LDEwNjkuMTI1IiBzdHlsZT0ic3Ryb2tlOiMxODE4MTg7c3Ryb2tlLXdpZHRoOjEuMDsiLz48bGluZSBzdHlsZT0ic3Ryb2tlOiMxODE4MTg7c3Ryb2tlLXdpZHRoOjEuMDsiIHgxPSI1ODIuNSIgeDI9IjU4Mi41IiB5MT0iNDM1LjA2MjUiIHkyPSI0NTUuMDYyNSIvPjxwb2x5Z29uIGZpbGw9IiMxODE4MTgiIHBvaW50cz0iNTc4LjUsNDQ1LjA2MjUsNTgyLjUsNDU1LjA2MjUsNTg2LjUsNDQ1LjA2MjUsNTgyLjUsNDQ5LjA2MjUiIHN0eWxlPSJzdHJva2U6IzE4MTgxODtzdHJva2Utd2lkdGg6MS4wOyIvPjxsaW5lIHN0eWxlPSJzdHJva2U6IzE4MTgxODtzdHJva2Utd2lkdGg6MS4wOyIgeDE9IjU4Mi41IiB4Mj0iNTgyLjUiIHkxPSI5NjguNDM3NSIgeTI9IjEwNzUuMTI1Ii8+PHBvbHlnb24gZmlsbD0iIzE4MTgxOCIgcG9pbnRzPSI1NzguNSwxMDY1LjEyNSw1ODIuNSwxMDc1LjEyNSw1ODYuNSwxMDY1LjEyNSw1ODIuNSwxMDY5LjEyNSIgc3R5bGU9InN0cm9rZTojMTgxODE4O3N0cm9rZS13aWR0aDoxLjA7Ii8+PGxpbmUgc3R5bGU9InN0cm9rZTojMTgxODE4O3N0cm9rZS13aWR0aDoxLjA7IiB4MT0iMTEwMiIgeDI9IjExMDIiIHkxPSI0MzUuMDYyNSIgeTI9IjQ1NS4wNjI1Ii8+PHBvbHlnb24gZmlsbD0iIzE4MTgxOCIgcG9pbnRzPSIxMDk4LDQ0NS4wNjI1LDExMDIsNDU1LjA2MjUsMTEwNiw0NDUuMDYyNSwxMTAyLDQ0OS4wNjI1IiBzdHlsZT0ic3Ryb2tlOiMxODE4MTg7c3Ryb2tlLXdpZHRoOjEuMDsiLz48bGluZSBzdHlsZT0ic3Ryb2tlOiMxODE4MTg7c3Ryb2tlLXdpZHRoOjEuMDsiIHgxPSIxMTAyIiB4Mj0iMTEwMiIgeTE9IjcwMC41OTM4IiB5Mj0iMTA3NS4xMjUiLz48cG9seWdvbiBmaWxsPSIjMTgxODE4IiBwb2ludHM9IjEwOTgsMTA2NS4xMjUsMTEwMiwxMDc1LjEyNSwxMTA2LDEwNjUuMTI1LDExMDIsMTA2OS4xMjUiIHN0eWxlPSJzdHJva2U6IzE4MTgxODtzdHJva2Utd2lkdGg6MS4wOyIvPjxsaW5lIHN0eWxlPSJzdHJva2U6IzE4MTgxODtzdHJva2Utd2lkdGg6MS4wOyIgeDE9IjEzMDQuNSIgeDI9IjEzMDQuNSIgeTE9IjQzNS4wNjI1IiB5Mj0iNDU1LjA2MjUiLz48cG9seWdvbiBmaWxsPSIjMTgxODE4IiBwb2ludHM9IjEzMDAuNSw0NDUuMDYyNSwxMzA0LjUsNDU1LjA2MjUsMTMwOC41LDQ0NS4wNjI1LDEzMDQuNSw0NDkuMDYyNSIgc3R5bGU9InN0cm9rZTojMTgxODE4O3N0cm9rZS13aWR0aDoxLjA7Ii8+PGxpbmUgc3R5bGU9InN0cm9rZTojMTgxODE4O3N0cm9rZS13aWR0aDoxLjA7IiB4MT0iMTQxIiB4Mj0iMTYxIiB5MT0iNDIzLjA2MjUiIHkyPSI0MjMuMDYyNSIvPjxwb2x5Z29uIGZpbGw9IiMxODE4MTgiIHBvaW50cz0iMTUxLDQxOS4wNjI1LDE2MSw0MjMuMDYyNSwxNTEsNDI3LjA2MjUsMTU1LDQyMy4wNjI1IiBzdHlsZT0ic3Ryb2tlOiMxODE4MTg7c3Ryb2tlLXdpZHRoOjEuMDsiLz48bGluZSBzdHlsZT0ic3Ryb2tlOiMxODE4MTg7c3Ryb2tlLXdpZHRoOjEuMDsiIHgxPSIzMTAiIHgyPSI1MjQuNSIgeTE9IjQyMy4wNjI1IiB5Mj0iNDIzLjA2MjUiLz48cG9seWdvbiBmaWxsPSIjMTgxODE4IiBwb2ludHM9IjUxNC41LDQxOS4wNjI1LDUyNC41LDQyMy4wNjI1LDUxNC41LDQyNy4wNjI1LDUxOC41LDQyMy4wNjI1IiBzdHlsZT0ic3Ryb2tlOiMxODE4MTg7c3Ryb2tlLXdpZHRoOjEuMDsiLz48bGluZSBzdHlsZT0ic3Ryb2tlOiMxODE4MTg7c3Ryb2tlLXdpZHRoOjEuMDsiIHgxPSI2NDAuNSIgeDI9IjEwNDQiIHkxPSI0MjMuMDYyNSIgeTI9IjQyMy4wNjI1Ii8+PHBvbHlnb24gZmlsbD0iIzE4MTgxOCIgcG9pbnRzPSIxMDM0LDQxOS4wNjI1LDEwNDQsNDIzLjA2MjUsMTAzNCw0MjcuMDYyNSwxMDM4LDQyMy4wNjI1IiBzdHlsZT0ic3Ryb2tlOiMxODE4MTg7c3Ryb2tlLXdpZHRoOjEuMDsiLz48bGluZSBzdHlsZT0ic3Ryb2tlOiMxODE4MTg7c3Ryb2tlLXdpZHRoOjEuMDsiIHgxPSIxMTYwIiB4Mj0iMTI0Ni41IiB5MT0iNDIzLjA2MjUiIHkyPSI0MjMuMDYyNSIvPjxwb2x5Z29uIGZpbGw9IiMxODE4MTgiIHBvaW50cz0iMTIzNi41LDQxOS4wNjI1LDEyNDYuNSw0MjMuMDYyNSwxMjM2LjUsNDI3LjA2MjUsMTI0MC41LDQyMy4wNjI1IiBzdHlsZT0ic3Ryb2tlOiMxODE4MTg7c3Ryb2tlLXdpZHRoOjEuMDsiLz48bGluZSBzdHlsZT0ic3Ryb2tlOiMxODE4MTg7c3Ryb2tlLXdpZHRoOjEuMDsiIHgxPSI3NjkiIHgyPSI3NjkiIHkxPSIzOTEuMDYyNSIgeTI9IjM5Ni4wNjI1Ii8+PGxpbmUgc3R5bGU9InN0cm9rZTojMTgxODE4O3N0cm9rZS13aWR0aDoxLjA7IiB4MT0iNzY5IiB4Mj0iODguNSIgeTE9IjM5Ni4wNjI1IiB5Mj0iMzk2LjA2MjUiLz48bGluZSBzdHlsZT0ic3Ryb2tlOiMxODE4MTg7c3Ryb2tlLXdpZHRoOjEuMDsiIHgxPSI4OC41IiB4Mj0iODguNSIgeTE9IjM5Ni4wNjI1IiB5Mj0iNDExLjA2MjUiLz48cG9seWdvbiBmaWxsPSIjMTgxODE4IiBwb2ludHM9Ijg0LjUsNDAxLjA2MjUsODguNSw0MTEuMDYyNSw5Mi41LDQwMS4wNjI1LDg4LjUsNDA1LjA2MjUiIHN0eWxlPSJzdHJva2U6IzE4MTgxODtzdHJva2Utd2lkdGg6MS4wOyIvPjxsaW5lIHN0eWxlPSJzdHJva2U6IzE4MTgxODtzdHJva2Utd2lkdGg6MS4wOyIgeDE9IjEzNjIuNSIgeDI9IjE0NTQiIHkxPSI0MjMuMDYyNSIgeTI9IjQyMy4wNjI1Ii8+PGxpbmUgc3R5bGU9InN0cm9rZTojMTgxODE4O3N0cm9rZS13aWR0aDoxLjA7IiB4MT0iMTQ1NCIgeDI9IjE0NTQiIHkxPSI0MjMuMDYyNSIgeTI9Ijc0MC42NzE5Ii8+PHBvbHlnb24gZmlsbD0iIzE4MTgxOCIgcG9pbnRzPSIxNDUwLDczMC42NzE5LDE0NTQsNzQwLjY3MTksMTQ1OCw3MzAuNjcxOSwxNDU0LDczNC42NzE5IiBzdHlsZT0ic3Ryb2tlOiMxODE4MTg7c3Ryb2tlLXdpZHRoOjEuMDsiLz48bGluZSBzdHlsZT0ic3Ryb2tlOiMxODE4MTg7c3Ryb2tlLXdpZHRoOjEuMDsiIHgxPSIxNDU0IiB4Mj0iMTQ1NCIgeTE9Ijc3My41MTU2IiB5Mj0iMTA3NS4xMjUiLz48cG9seWdvbiBmaWxsPSIjMTgxODE4IiBwb2ludHM9IjE0NTAsMTA2NS4xMjUsMTQ1NCwxMDc1LjEyNSwxNDU4LDEwNjUuMTI1LDE0NTQsMTA2OS4xMjUiIHN0eWxlPSJzdHJva2U6IzE4MTgxODtzdHJva2Utd2lkdGg6MS4wOyIvPjxsaW5lIHN0eWxlPSJzdHJva2U6IzE4MTgxODtzdHJva2Utd2lkdGg6MS4wOyIgeDE9Ijg4LjUiIHgyPSIxNDU0IiB5MT0iMTA3NS4xMjUiIHkyPSIxMDc1LjEyNSIvPjxsaW5lIHN0eWxlPSJzdHJva2U6IzE4MTgxODtzdHJva2Utd2lkdGg6MS4wOyIgeDE9Ijc2OSIgeDI9Ijc2OSIgeTE9IjEwNzUuMTI1IiB5Mj0iMTA5NS4xMjUiLz48cG9seWdvbiBmaWxsPSIjMTgxODE4IiBwb2ludHM9Ijc2NSwxMDg1LjEyNSw3NjksMTA5NS4xMjUsNzczLDEwODUuMTI1LDc2OSwxMDg5LjEyNSIgc3R5bGU9InN0cm9rZTojMTgxODE4O3N0cm9rZS13aWR0aDoxLjA7Ii8+PGxpbmUgc3R5bGU9InN0cm9rZTojMTgxODE4O3N0cm9rZS13aWR0aDoxLjA7IiB4MT0iNzY5IiB4Mj0iNzY5IiB5MT0iMzM4LjIxODgiIHkyPSIzNTguMjE4OCIvPjxwb2x5Z29uIGZpbGw9IiMxODE4MTgiIHBvaW50cz0iNzY1LDM0OC4yMTg4LDc2OSwzNTguMjE4OCw3NzMsMzQ4LjIxODgsNzY5LDM1Mi4yMTg4IiBzdHlsZT0ic3Ryb2tlOiMxODE4MTg7c3Ryb2tlLXdpZHRoOjEuMDsiLz48bGluZSBzdHlsZT0ic3Ryb2tlOiMxODE4MTg7c3Ryb2tlLXdpZHRoOjEuMDsiIHgxPSI3NjkiIHgyPSI3NjkiIHkxPSIxMTI3Ljk2ODgiIHkyPSIxMTM3Ljk2ODgiLz48bGluZSBzdHlsZT0ic3Ryb2tlOiMxODE4MTg7c3Ryb2tlLXdpZHRoOjEuMDsiIHgxPSI3NjkiIHgyPSIxNDk4LjUiIHkxPSIxMTM3Ljk2ODgiIHkyPSIxMTM3Ljk2ODgiLz48cG9seWdvbiBmaWxsPSIjMTgxODE4IiBwb2ludHM9IjE0OTQuNSw3NTUuMDkzOCwxNDk4LjUsNzQ1LjA5MzgsMTUwMi41LDc1NS4wOTM4LDE0OTguNSw3NTEuMDkzOCIgc3R5bGU9InN0cm9rZTojMTgxODE4O3N0cm9rZS13aWR0aDoxLjA7Ii8+PGxpbmUgc3R5bGU9InN0cm9rZTojMTgxODE4O3N0cm9rZS13aWR0aDoxLjA7IiB4MT0iMTQ5OC41IiB4Mj0iMTQ5OC41IiB5MT0iMzI2LjIxODgiIHkyPSIxMTM3Ljk2ODgiLz48bGluZSBzdHlsZT0ic3Ryb2tlOiMxODE4MTg7c3Ryb2tlLXdpZHRoOjEuMDsiIHgxPSIxNDk4LjUiIHgyPSI4MjEiIHkxPSIzMjYuMjE4OCIgeTI9IjMyNi4yMTg4Ii8+PHBvbHlnb24gZmlsbD0iIzE4MTgxOCIgcG9pbnRzPSI4MzEsMzIyLjIxODgsODIxLDMyNi4yMTg4LDgzMSwzMzAuMjE4OCw4MjcsMzI2LjIxODgiIHN0eWxlPSJzdHJva2U6IzE4MTgxODtzdHJva2Utd2lkdGg6MS4wOyIvPjxsaW5lIHN0eWxlPSJzdHJva2U6IzE4MTgxODtzdHJva2Utd2lkdGg6MS4wOyIgeDE9IjcxNyIgeDI9IjI0IiB5MT0iMzI2LjIxODgiIHkyPSIzMjYuMjE4OCIvPjxwb2x5Z29uIGZpbGw9IiMxODE4MTgiIHBvaW50cz0iMjAsNzQxLjA5MzgsMjQsNzUxLjA5MzgsMjgsNzQxLjA5MzgsMjQsNzQ1LjA5MzgiIHN0eWxlPSJzdHJva2U6IzE4MTgxODtzdHJva2Utd2lkdGg6MS4wOyIvPjxsaW5lIHN0eWxlPSJzdHJva2U6IzE4MTgxODtzdHJva2Utd2lkdGg6MS4wOyIgeDE9IjI0IiB4Mj0iMjQiIHkxPSIzMjYuMjE4OCIgeTI9IjExNDkuOTY4OCIvPjxsaW5lIHN0eWxlPSJzdHJva2U6IzE4MTgxODtzdHJva2Utd2lkdGg6MS4wOyIgeDE9IjI0IiB4Mj0iNzY5IiB5MT0iMTE0OS45Njg4IiB5Mj0iMTE0OS45Njg4Ii8+PGxpbmUgc3R5bGU9InN0cm9rZTojMTgxODE4O3N0cm9rZS13aWR0aDoxLjA7IiB4MT0iNzY5IiB4Mj0iNzY5IiB5MT0iMTE0OS45Njg4IiB5Mj0iMTE2OS45Njg4Ii8+PHBvbHlnb24gZmlsbD0iIzE4MTgxOCIgcG9pbnRzPSI3NjUsMTE1OS45Njg4LDc2OSwxMTY5Ljk2ODgsNzczLDExNTkuOTY4OCw3NjksMTE2My45Njg4IiBzdHlsZT0ic3Ryb2tlOiMxODE4MTg7c3Ryb2tlLXdpZHRoOjEuMDsiLz48bGluZSBzdHlsZT0ic3Ryb2tlOiMxODE4MTg7c3Ryb2tlLXdpZHRoOjEuMDsiIHgxPSI3NjkiIHgyPSI3NjkiIHkxPSIyOTQuMjE4OCIgeTI9IjMxNC4yMTg4Ii8+PHBvbHlnb24gZmlsbD0iIzE4MTgxOCIgcG9pbnRzPSI3NjUsMzA0LjIxODgsNzY5LDMxNC4yMTg4LDc3MywzMDQuMjE4OCw3NjksMzA4LjIxODgiIHN0eWxlPSJzdHJva2U6IzE4MTgxODtzdHJva2Utd2lkdGg6MS4wOyIvPjxsaW5lIHN0eWxlPSJzdHJva2U6IzE4MTgxODtzdHJva2Utd2lkdGg6MS4wOyIgeDE9Ijc2OSIgeDI9Ijc2OSIgeTE9IjEyNDYuODEyNSIgeTI9IjEyODEuODEyNSIvPjxwb2x5Z29uIGZpbGw9IiMxODE4MTgiIHBvaW50cz0iNzY1LDEyNzEuODEyNSw3NjksMTI4MS44MTI1LDc3MywxMjcxLjgxMjUsNzY5LDEyNzUuODEyNSIgc3R5bGU9InN0cm9rZTojMTgxODE4O3N0cm9rZS13aWR0aDoxLjA7Ii8+PGxpbmUgc3R5bGU9InN0cm9rZTojMTgxODE4O3N0cm9rZS13aWR0aDoxLjA7IiB4MT0iNzY5IiB4Mj0iNzY5IiB5MT0iMTE5My45Njg4IiB5Mj0iMTIxMy45Njg4Ii8+PHBvbHlnb24gZmlsbD0iIzE4MTgxOCIgcG9pbnRzPSI3NjUsMTIwMy45Njg4LDc2OSwxMjEzLjk2ODgsNzczLDEyMDMuOTY4OCw3NjksMTIwNy45Njg4IiBzdHlsZT0ic3Ryb2tlOiMxODE4MTg7c3Ryb2tlLXdpZHRoOjEuMDsiLz48bGluZSBzdHlsZT0ic3Ryb2tlOiMxODE4MTg7c3Ryb2tlLXdpZHRoOjEuMDsiIHgxPSI4MTAiIHgyPSI4NTAuNSIgeTE9IjExODEuOTY4OCIgeTI9IjExODEuOTY4OCIvPjxwb2x5Z29uIGZpbGw9IiMxODE4MTgiIHBvaW50cz0iODQ2LjUsMTI1NC4zMTI1LDg1MC41LDEyNjQuMzEyNSw4NTQuNSwxMjU0LjMxMjUsODUwLjUsMTI1OC4zMTI1IiBzdHlsZT0ic3Ryb2tlOiMxODE4MTg7c3Ryb2tlLXdpZHRoOjEuMDsiLz48bGluZSBzdHlsZT0ic3Ryb2tlOiMxODE4MTg7c3Ryb2tlLXdpZHRoOjEuMDsiIHgxPSI4NTAuNSIgeDI9Ijg1MC41IiB5MT0iMTE4MS45Njg4IiB5Mj0iMTM0Ni42NTYzIi8+PGxpbmUgc3R5bGU9InN0cm9rZTojMTgxODE4O3N0cm9rZS13aWR0aDoxLjA7IiB4MT0iODUwLjUiIHgyPSI3ODEiIHkxPSIxMzQ2LjY1NjMiIHkyPSIxMzQ2LjY1NjMiLz48cG9seWdvbiBmaWxsPSIjMTgxODE4IiBwb2ludHM9Ijc5MSwxMzQyLjY1NjMsNzgxLDEzNDYuNjU2Myw3OTEsMTM1MC42NTYzLDc4NywxMzQ2LjY1NjMiIHN0eWxlPSJzdHJva2U6IzE4MTgxODtzdHJva2Utd2lkdGg6MS4wOyIvPjxsaW5lIHN0eWxlPSJzdHJva2U6IzE4MTgxODtzdHJva2Utd2lkdGg6MS4wOyIgeDE9Ijc2OSIgeDI9Ijc2OSIgeTE9IjEzMTQuNjU2MyIgeTI9IjEzMzQuNjU2MyIvPjxwb2x5Z29uIGZpbGw9IiMxODE4MTgiIHBvaW50cz0iNzY1LDEzMjQuNjU2Myw3NjksMTMzNC42NTYzLDc3MywxMzI0LjY1NjMsNzY5LDEzMjguNjU2MyIgc3R5bGU9InN0cm9rZTojMTgxODE4O3N0cm9rZS13aWR0aDoxLjA7Ii8+PGxpbmUgc3R5bGU9InN0cm9rZTojMTgxODE4O3N0cm9rZS13aWR0aDoxLjA7IiB4MT0iNzY5IiB4Mj0iNzY5IiB5MT0iMTQwMi42NTYzIiB5Mj0iMTQyMi42NTYzIi8+PHBvbHlnb24gZmlsbD0iIzE4MTgxOCIgcG9pbnRzPSI3NjUsMTQxMi42NTYzLDc2OSwxNDIyLjY1NjMsNzczLDE0MTIuNjU2Myw3NjksMTQxNi42NTYzIiBzdHlsZT0ic3Ryb2tlOiMxODE4MTg7c3Ryb2tlLXdpZHRoOjEuMDsiLz48bGluZSBzdHlsZT0ic3Ryb2tlOiMxODE4MTg7c3Ryb2tlLXdpZHRoOjEuMDsiIHgxPSI3NjkiIHgyPSI3NjkiIHkxPSIxNDU1LjUiIHkyPSIxNDY1LjUiLz48bGluZSBzdHlsZT0ic3Ryb2tlOiMxODE4MTg7c3Ryb2tlLXdpZHRoOjEuMDsiIHgxPSI3NjkiIHgyPSI4ODUiIHkxPSIxNDY1LjUiIHkyPSIxNDY1LjUiLz48cG9seWdvbiBmaWxsPSIjMTgxODE4IiBwb2ludHM9Ijg4MSwxNDM3LjA3ODEsODg1LDE0MjcuMDc4MSw4ODksMTQzNy4wNzgxLDg4NSwxNDMzLjA3ODEiIHN0eWxlPSJzdHJva2U6IzE4MTgxODtzdHJva2Utd2lkdGg6MS4wOyIvPjxsaW5lIHN0eWxlPSJzdHJva2U6IzE4MTgxODtzdHJva2Utd2lkdGg6MS4wOyIgeDE9Ijg4NSIgeDI9Ijg4NSIgeTE9IjEzOTAuNjU2MyIgeTI9IjE0NjUuNSIvPjxsaW5lIHN0eWxlPSJzdHJva2U6IzE4MTgxODtzdHJva2Utd2lkdGg6MS4wOyIgeDE9Ijg4NSIgeDI9IjgxMi41IiB5MT0iMTM5MC42NTYzIiB5Mj0iMTM5MC42NTYzIi8+PHBvbHlnb24gZmlsbD0iIzE4MTgxOCIgcG9pbnRzPSI4MjIuNSwxMzg2LjY1NjMsODEyLjUsMTM5MC42NTYzLDgyMi41LDEzOTQuNjU2Myw4MTguNSwxMzkwLjY1NjMiIHN0eWxlPSJzdHJva2U6IzE4MTgxODtzdHJva2Utd2lkdGg6MS4wOyIvPjxsaW5lIHN0eWxlPSJzdHJva2U6IzE4MTgxODtzdHJva2Utd2lkdGg6MS4wOyIgeDE9IjcyNS41IiB4Mj0iNjUzIiB5MT0iMTM5MC42NTYzIiB5Mj0iMTM5MC42NTYzIi8+PHBvbHlnb24gZmlsbD0iIzE4MTgxOCIgcG9pbnRzPSI2NDksMTQyMy4wNzgxLDY1MywxNDMzLjA3ODEsNjU3LDE0MjMuMDc4MSw2NTMsMTQyNy4wNzgxIiBzdHlsZT0ic3Ryb2tlOiMxODE4MTg7c3Ryb2tlLXdpZHRoOjEuMDsiLz48bGluZSBzdHlsZT0ic3Ryb2tlOiMxODE4MTg7c3Ryb2tlLXdpZHRoOjEuMDsiIHgxPSI2NTMiIHgyPSI2NTMiIHkxPSIxMzkwLjY1NjMiIHkyPSIxNDc3LjUiLz48bGluZSBzdHlsZT0ic3Ryb2tlOiMxODE4MTg7c3Ryb2tlLXdpZHRoOjEuMDsiIHgxPSI2NTMiIHgyPSI3NjkiIHkxPSIxNDc3LjUiIHkyPSIxNDc3LjUiLz48bGluZSBzdHlsZT0ic3Ryb2tlOiMxODE4MTg7c3Ryb2tlLXdpZHRoOjEuMDsiIHgxPSI3NjkiIHgyPSI3NjkiIHkxPSIxNDc3LjUiIHkyPSIxNDk3LjUiLz48cG9seWdvbiBmaWxsPSIjMTgxODE4IiBwb2ludHM9Ijc2NSwxNDg3LjUsNzY5LDE0OTcuNSw3NzMsMTQ4Ny41LDc2OSwxNDkxLjUiIHN0eWxlPSJzdHJva2U6IzE4MTgxODtzdHJva2Utd2lkdGg6MS4wOyIvPjxsaW5lIHN0eWxlPSJzdHJva2U6IzE4MTgxODtzdHJva2Utd2lkdGg6MS4wOyIgeDE9Ijc2OSIgeDI9Ijc2OSIgeTE9IjEzNTguNjU2MyIgeTI9IjEzNzguNjU2MyIvPjxwb2x5Z29uIGZpbGw9IiMxODE4MTgiIHBvaW50cz0iNzY1LDEzNjguNjU2Myw3NjksMTM3OC42NTYzLDc3MywxMzY4LjY1NjMsNzY5LDEzNzIuNjU2MyIgc3R5bGU9InN0cm9rZTojMTgxODE4O3N0cm9rZS13aWR0aDoxLjA7Ii8+PGxpbmUgc3R5bGU9InN0cm9rZTojMTgxODE4O3N0cm9rZS13aWR0aDoxLjA7IiB4MT0iNzY5IiB4Mj0iNzY5IiB5MT0iMTUzMC4zNDM4IiB5Mj0iMTU1MC4zNDM4Ii8+PHBvbHlnb24gZmlsbD0iIzE4MTgxOCIgcG9pbnRzPSI3NjUsMTU0MC4zNDM4LDc2OSwxNTUwLjM0MzgsNzczLDE1NDAuMzQzOCw3NjksMTU0NC4zNDM4IiBzdHlsZT0ic3Ryb2tlOiMxODE4MTg7c3Ryb2tlLXdpZHRoOjEuMDsiLz48IS0tU1JDPVtqTEZCSmk5RzREdHA1THRBQnJacjR6R3pPSzUyWUpVMXFmR0l1eXdlSTJEQUpQSDc5MjJPWUQ0VzQzNktiXzBwSjF6X3VVc3p0OE8yT2FubXFwSGRwZm12U3dQREEyNVB5TXMzTWVRTjM1cGRHSWxRUU9ydGExOEMxLVJoMER1QlBnQy14TnFlR2NtXzZQaWxzU0w3SzBrb2E5VzdaUWVRYm1HdlgzNGhndUVNanlQdGE3ZnNQUDBlOUhOcHVTQkVKTTFHNXRkVnlINkEyam1NWkRfQ1JDaWVyd1IzQmVVdTdLeHFDbU5JNGExMXQwTWQ4enc3OGptTW11bllZbW1URU1vek9xdElMY2lzWkZTOXFPSW1HM1BvUkxtcnIzb3FEVm5rZGxMbjh4R2xOT2UtWEFpZ2c2c3N4V2VEUXQ5aERmcTlWY0E1Q2tybzFIa1hPWEhuZk1YMlRsaDZfNmhJcWhKZFlIUEY0U0NlR2pIOFVCSUVlX0lRV3NtNkhxYU9rNFF6aVZtOElhc0dGYVNoVFkwZlhwQUFvcVd2MlIwc2t6UTVyQmR2TUdyb1V4a1NYeUJjMUVkT2ZHdjhFemhHeHRmTjhwUVN6NzZUZGY0alg5XzR0bGVqQTdLdlB6M2hIZ08xY2h4ZmQ5clVMdG5MZzhqNmpDdl82SGRyU01YQkdLaU8yVUZCeUVra29xWlVmNVJVbVY3ZXFocWtWdE5XdGQxc3ZpYXpiMmhxeFpGamZtZU1IRXBsVEZjUlpVZzc4RnhxZFJmVmVvbWVJTGRhMjlmR3VqOHRdLS0+PC9nPjwvc3ZnPg==;" vertex="1" parent="1">
            <mxGeometry x="-350" y="-410" width="1524" height="1583" as="geometry" />
          </mxCell>
        </UserObject>
      </root>
    </mxGraphModel>
  </diagram>
</mxfile>
